<svg xmlns="http://www.w3.org/2000/svg" viewBox="0 0 1920 1080" role="img" aria-labelledby="title desc" font-family="Inter, -apple-system, BlinkMacSystemFont, 'Segoe UI', sans-serif">
<title id="title">Reticle, exposure field and wafer at one physical scale</title>
<desc id="desc">A reticle pattern is reduced four times to a 26 by 33 millimetre exposure field, which is stepped across a 300 millimetre wafer.</desc>
<defs>
  <filter id="glow" x="-100%" y="-100%" width="300%" height="300%">
    <feGaussianBlur stdDeviation="9" result="blur"/>
    <feMerge><feMergeNode in="blur"/><feMergeNode in="SourceGraphic"/></feMerge>
  </filter>
  <marker id="arrow-cyan" markerWidth="12" markerHeight="12" refX="10" refY="6" orient="auto"><path d="M0,0 L12,6 L0,12 Z" fill="#67e8f9"/></marker>
  <marker id="arrow-amber" markerWidth="12" markerHeight="12" refX="10" refY="6" orient="auto"><path d="M0,0 L12,6 L0,12 Z" fill="#fbbf24"/></marker>
<clipPath id="wafer-clip"><circle cx="1450" cy="545" r="300"/></clipPath>
</defs>
<rect width="1920" height="1080" fill="#05080e"/>
<g>
  <rect x="178" y="386" width="304" height="304" rx="10" fill="#101827" stroke="#9aa9bd" stroke-width="3"/>
  <rect x="198" y="434" width="264" height="208" fill="#162b36" stroke="#67e8f9" stroke-width="4"/>
  <g stroke="#67e8f9" stroke-width="1.4" opacity="0.35">
    <path d="M224 434V642M250 434V642M276 434V642M302 434V642M328 434V642M354 434V642M380 434V642M406 434V642M432 434V642"/>
    <path d="M198 460H462M198 486H462M198 512H462M198 538H462M198 564H462M198 590H462M198 616H462"/>
  </g>
  <text x="330" y="344" fill="#9aa9bd" font-size="25" font-weight="700" text-anchor="middle" letter-spacing="2.4">RETICLE</text>
  <text x="330" y="734" fill="#f8fafc" font-size="25" font-weight="620" text-anchor="middle" letter-spacing="0">pattern · 132 × 104 mm</text>
</g>
<path d="M520 538H840" fill="none" stroke="#67e8f9" stroke-width="4" marker-end="url(#arrow-cyan)"/>
<text x="680" y="505" fill="#67e8f9" font-size="27" font-weight="700" text-anchor="middle" letter-spacing="0">4× reduction</text>
<g>
  <rect x="876" y="512" width="66" height="52" rx="3" fill="rgba(251,191,36,0.2)" stroke="#fbbf24" stroke-width="4"/>
  <path d="M876 593V621M876 607H942M942 593V621" fill="none" stroke="#67e8f9" stroke-width="3"/>
<text x="909" y="583" fill="#67e8f9" font-size="30" font-weight="720" text-anchor="middle" letter-spacing="0">33 mm</text>
  <text x="966" y="548" fill="#67e8f9" font-size="24" font-weight="700" text-anchor="start" letter-spacing="0">26 mm</text>
  <text x="909" y="475" fill="#9aa9bd" font-size="23" font-weight="700" text-anchor="middle" letter-spacing="2">ONE EXPOSURE</text>
</g>
<path d="M990 538C1080 538 1090 490 1145 474" fill="none" stroke="#fbbf24" stroke-width="3" stroke-dasharray="8 8" marker-end="url(#arrow-amber)"/>
<g>
  <circle cx="1450" cy="545" r="300" fill="#0b1523" stroke="#9aa9bd" stroke-width="4"/>
  <path d="M1398 843H1502" stroke="#9aa9bd" stroke-width="8"/>
  <g clip-path="url(#wafer-clip)"><rect x="1180" y="285" width="66" height="52" rx="2" fill="none" stroke="#435168" stroke-width="1.5" opacity="0.58"/><rect x="1253" y="285" width="66" height="52" rx="2" fill="none" stroke="#435168" stroke-width="1.5" opacity="0.58"/><rect x="1326" y="285" width="66" height="52" rx="2" fill="none" stroke="#435168" stroke-width="1.5" opacity="0.58"/><rect x="1399" y="285" width="66" height="52" rx="2" fill="none" stroke="#435168" stroke-width="1.5" opacity="0.58"/><rect x="1472" y="285" width="66" height="52" rx="2" fill="none" stroke="#435168" stroke-width="1.5" opacity="0.58"/><rect x="1545" y="285" width="66" height="52" rx="2" fill="none" stroke="#435168" stroke-width="1.5" opacity="0.58"/><rect x="1618" y="285" width="66" height="52" rx="2" fill="none" stroke="#435168" stroke-width="1.5" opacity="0.58"/><rect x="1180" y="344" width="66" height="52" rx="2" fill="none" stroke="#435168" stroke-width="1.5" opacity="0.58"/><rect x="1253" y="344" width="66" height="52" rx="2" fill="none" stroke="#435168" stroke-width="1.5" opacity="0.58"/><rect x="1326" y="344" width="66" height="52" rx="2" fill="none" stroke="#435168" stroke-width="1.5" opacity="0.58"/><rect x="1399" y="344" width="66" height="52" rx="2" fill="none" stroke="#435168" stroke-width="1.5" opacity="0.58"/><rect x="1472" y="344" width="66" height="52" rx="2" fill="none" stroke="#435168" stroke-width="1.5" opacity="0.58"/><rect x="1545" y="344" width="66" height="52" rx="2" fill="none" stroke="#435168" stroke-width="1.5" opacity="0.58"/><rect x="1618" y="344" width="66" height="52" rx="2" fill="none" stroke="#435168" stroke-width="1.5" opacity="0.58"/><rect x="1180" y="403" width="66" height="52" rx="2" fill="none" stroke="#435168" stroke-width="1.5" opacity="0.58"/><rect x="1253" y="403" width="66" height="52" rx="2" fill="none" stroke="#435168" stroke-width="1.5" opacity="0.58"/><rect x="1326" y="403" width="66" height="52" rx="2" fill="none" stroke="#435168" stroke-width="1.5" opacity="0.58"/><rect x="1399" y="403" width="66" height="52" rx="2" fill="none" stroke="#435168" stroke-width="1.5" opacity="0.58"/><rect x="1472" y="403" width="66" height="52" rx="2" fill="none" stroke="#435168" stroke-width="1.5" opacity="0.58"/><rect x="1545" y="403" width="66" height="52" rx="2" fill="none" stroke="#435168" stroke-width="1.5" opacity="0.58"/><rect x="1618" y="403" width="66" height="52" rx="2" fill="none" stroke="#435168" stroke-width="1.5" opacity="0.58"/><rect x="1180" y="462" width="66" height="52" rx="2" fill="none" stroke="#435168" stroke-width="1.5" opacity="0.58"/><rect x="1253" y="462" width="66" height="52" rx="2" fill="none" stroke="#435168" stroke-width="1.5" opacity="0.58"/><rect x="1326" y="462" width="66" height="52" rx="2" fill="none" stroke="#435168" stroke-width="1.5" opacity="0.58"/><rect x="1399" y="462" width="66" height="52" rx="2" fill="none" stroke="#435168" stroke-width="1.5" opacity="0.58"/><rect x="1472" y="462" width="66" height="52" rx="2" fill="none" stroke="#435168" stroke-width="1.5" opacity="0.58"/><rect x="1545" y="462" width="66" height="52" rx="2" fill="none" stroke="#435168" stroke-width="1.5" opacity="0.58"/><rect x="1618" y="462" width="66" height="52" rx="2" fill="none" stroke="#435168" stroke-width="1.5" opacity="0.58"/><rect x="1180" y="521" width="66" height="52" rx="2" fill="none" stroke="#435168" stroke-width="1.5" opacity="0.58"/><rect x="1253" y="521" width="66" height="52" rx="2" fill="none" stroke="#435168" stroke-width="1.5" opacity="0.58"/><rect x="1326" y="521" width="66" height="52" rx="2" fill="none" stroke="#435168" stroke-width="1.5" opacity="0.58"/><rect x="1399" y="521" width="66" height="52" rx="2" fill="none" stroke="#435168" stroke-width="1.5" opacity="0.58"/><rect x="1472" y="521" width="66" height="52" rx="2" fill="none" stroke="#435168" stroke-width="1.5" opacity="0.58"/><rect x="1545" y="521" width="66" height="52" rx="2" fill="none" stroke="#435168" stroke-width="1.5" opacity="0.58"/><rect x="1618" y="521" width="66" height="52" rx="2" fill="none" stroke="#435168" stroke-width="1.5" opacity="0.58"/><rect x="1180" y="580" width="66" height="52" rx="2" fill="none" stroke="#435168" stroke-width="1.5" opacity="0.58"/><rect x="1253" y="580" width="66" height="52" rx="2" fill="none" stroke="#435168" stroke-width="1.5" opacity="0.58"/><rect x="1326" y="580" width="66" height="52" rx="2" fill="none" stroke="#435168" stroke-width="1.5" opacity="0.58"/><rect x="1399" y="580" width="66" height="52" rx="2" fill="none" stroke="#435168" stroke-width="1.5" opacity="0.58"/><rect x="1472" y="580" width="66" height="52" rx="2" fill="none" stroke="#435168" stroke-width="1.5" opacity="0.58"/><rect x="1545" y="580" width="66" height="52" rx="2" fill="none" stroke="#435168" stroke-width="1.5" opacity="0.58"/><rect x="1618" y="580" width="66" height="52" rx="2" fill="none" stroke="#435168" stroke-width="1.5" opacity="0.58"/><rect x="1180" y="639" width="66" height="52" rx="2" fill="none" stroke="#435168" stroke-width="1.5" opacity="0.58"/><rect x="1253" y="639" width="66" height="52" rx="2" fill="none" stroke="#435168" stroke-width="1.5" opacity="0.58"/><rect x="1326" y="639" width="66" height="52" rx="2" fill="none" stroke="#435168" stroke-width="1.5" opacity="0.58"/><rect x="1399" y="639" width="66" height="52" rx="2" fill="none" stroke="#435168" stroke-width="1.5" opacity="0.58"/><rect x="1472" y="639" width="66" height="52" rx="2" fill="none" stroke="#435168" stroke-width="1.5" opacity="0.58"/><rect x="1545" y="639" width="66" height="52" rx="2" fill="none" stroke="#435168" stroke-width="1.5" opacity="0.58"/><rect x="1618" y="639" width="66" height="52" rx="2" fill="none" stroke="#435168" stroke-width="1.5" opacity="0.58"/><rect x="1180" y="698" width="66" height="52" rx="2" fill="none" stroke="#435168" stroke-width="1.5" opacity="0.58"/><rect x="1253" y="698" width="66" height="52" rx="2" fill="none" stroke="#435168" stroke-width="1.5" opacity="0.58"/><rect x="1326" y="698" width="66" height="52" rx="2" fill="none" stroke="#435168" stroke-width="1.5" opacity="0.58"/><rect x="1399" y="698" width="66" height="52" rx="2" fill="none" stroke="#435168" stroke-width="1.5" opacity="0.58"/><rect x="1472" y="698" width="66" height="52" rx="2" fill="none" stroke="#435168" stroke-width="1.5" opacity="0.58"/><rect x="1545" y="698" width="66" height="52" rx="2" fill="none" stroke="#435168" stroke-width="1.5" opacity="0.58"/><rect x="1618" y="698" width="66" height="52" rx="2" fill="none" stroke="#435168" stroke-width="1.5" opacity="0.58"/><rect x="1180" y="757" width="66" height="52" rx="2" fill="none" stroke="#435168" stroke-width="1.5" opacity="0.58"/><rect x="1253" y="757" width="66" height="52" rx="2" fill="none" stroke="#435168" stroke-width="1.5" opacity="0.58"/><rect x="1326" y="757" width="66" height="52" rx="2" fill="none" stroke="#435168" stroke-width="1.5" opacity="0.58"/><rect x="1399" y="757" width="66" height="52" rx="2" fill="none" stroke="#435168" stroke-width="1.5" opacity="0.58"/><rect x="1472" y="757" width="66" height="52" rx="2" fill="none" stroke="#435168" stroke-width="1.5" opacity="0.58"/><rect x="1545" y="757" width="66" height="52" rx="2" fill="none" stroke="#435168" stroke-width="1.5" opacity="0.58"/><rect x="1618" y="757" width="66" height="52" rx="2" fill="none" stroke="#435168" stroke-width="1.5" opacity="0.58"/></g>
  <rect x="1451" y="467" width="66" height="52" rx="3" fill="rgba(251,191,36,0.3)" stroke="#fbbf24" stroke-width="4" filter="url(#glow)"/>
  <text x="1450" y="196" fill="#9aa9bd" font-size="25" font-weight="700" text-anchor="middle" letter-spacing="2.4">300 mm WAFER</text>
</g>
</svg>
