<svg xmlns="http://www.w3.org/2000/svg" width="1920" height="1080" viewBox="0 0 1920 1080" role="img" aria-labelledby="title desc" font-family="Inter, -apple-system, BlinkMacSystemFont, 'Segoe UI', sans-serif">
<title id="title">Chiplets reduce defect loss and allow mixed process nodes beside HBM</title>
<desc id="desc">The same defect destroys a large monolithic die but only one of four smaller chiplets. A package below combines leading-edge compute tiles, a mature-node input-output die, and HBM on a silicon interposer.</desc>
<defs>
  <filter id="shadow" x="-25%" y="-25%" width="150%" height="170%">
    <feDropShadow dx="0" dy="12" stdDeviation="12" flood-color="#1f272d" flood-opacity="0.13"/>
  </filter>
  <marker id="arrow-ink" markerWidth="12" markerHeight="12" refX="10" refY="6" orient="auto">
    <path d="M0 0L12 6L0 12Z" fill="#1f272d"/>
  </marker>
  <marker id="arrow-blue" markerWidth="12" markerHeight="12" refX="10" refY="6" orient="auto">
    <path d="M0 0L12 6L0 12Z" fill="#3977a8"/>
  </marker>
  <marker id="arrow-violet" markerWidth="12" markerHeight="12" refX="10" refY="6" orient="auto">
    <path d="M0 0L12 6L0 12Z" fill="#7358a3"/>
  </marker>
  <pattern id="hatch" width="18" height="18" patternUnits="userSpaceOnUse" patternTransform="rotate(45)">
    <path d="M0 0V18" stroke="#ad5a5a" stroke-width="5" opacity="0.36"/>
  </pattern>
</defs>
<rect width="1920" height="1080" fill="#f4efe6"/>
<text x="470" y="132" fill="#74746f" font-size="24" font-weight="760" text-anchor="middle" letter-spacing="2.2">ONE MONOLITH</text>
<text x="1450" y="132" fill="#74746f" font-size="24" font-weight="760" text-anchor="middle" letter-spacing="2.2">FOUR CHIPLET DIES</text>
<g filter="url(#shadow)">
  <g>
  <rect x="180" y="190" width="580" height="330" rx="18" fill="#efd7d1" stroke="#ad5a5a" stroke-width="4"/>
  <rect x="180" y="190" width="580" height="330" rx="18" fill="url(#hatch)"/>
</g>
  <path d="M230 245H710M230 325H710M230 405H710M330 220V490M470 220V490M610 220V490" stroke="#ad5a5a" stroke-width="2" opacity="0.24"/>
</g>
<g transform="translate(615 306)">
  <circle r="26" fill="#efd7d1" stroke="#ad5a5a" stroke-width="4"/>
  <path d="M-34 0H34M0-34V34M-24-24L24 24M24-24L-24 24" stroke="#ad5a5a" stroke-width="6" stroke-linecap="round"/>
</g>
<text x="470" y="574" fill="#ad5a5a" font-size="32" font-weight="760" text-anchor="middle" letter-spacing="0">whole die lost</text>
<path d="M855 344H1065" stroke="#1f272d" stroke-width="4" stroke-dasharray="11 10" marker-end="url(#arrow-ink)"/>
<text x="960" y="312" fill="#74746f" font-size="22" font-weight="650" text-anchor="middle" letter-spacing="0">same defect</text>
<g filter="url(#shadow)">
  <g>
  <rect x="1160" y="190" width="260" height="145" rx="18" fill="#d9e7db" stroke="#4f8064" stroke-width="4"/>
</g>
  <g>
  <rect x="1480" y="190" width="260" height="145" rx="18" fill="#efd7d1" stroke="#ad5a5a" stroke-width="4"/>
  <rect x="1480" y="190" width="260" height="145" rx="18" fill="url(#hatch)"/>
</g>
  <g>
  <rect x="1160" y="375" width="260" height="145" rx="18" fill="#d9e7db" stroke="#4f8064" stroke-width="4"/>
</g>
  <g>
  <rect x="1480" y="375" width="260" height="145" rx="18" fill="#d9e7db" stroke="#4f8064" stroke-width="4"/>
</g>
</g>
<g transform="translate(1610 262)">
  <circle r="26" fill="#efd7d1" stroke="#ad5a5a" stroke-width="4"/>
  <path d="M-34 0H34M0-34V34M-24-24L24 24M24-24L-24 24" stroke="#ad5a5a" stroke-width="6" stroke-linecap="round"/>
</g>
<text x="1450" y="574" fill="#4f8064" font-size="32" font-weight="760" text-anchor="middle" letter-spacing="0">one tile lost · three usable</text>

<path d="M102 650H1818" stroke="#ddd6c9" stroke-width="3"/>
<text x="132" y="708" fill="#74746f" font-size="22" font-weight="760" text-anchor="start" letter-spacing="2.2">ONE PACKAGE</text>
<g filter="url(#shadow)">
  <rect x="350" y="776" width="1370" height="164" rx="30" fill="#d7e7df" stroke="#387d72" stroke-width="4"/>
  <path d="M390 868H1680" stroke="#387d72" stroke-width="3" opacity="0.32"/>
  <g>
  <rect x="470" y="806" width="250" height="106" rx="18" fill="#d6e7f1" stroke="#3977a8" stroke-width="4"/>
</g>
  <g>
  <rect x="748" y="806" width="250" height="106" rx="18" fill="#d6e7f1" stroke="#3977a8" stroke-width="4"/>
</g>
  <g>
  <rect x="1025" y="806" width="120" height="106" rx="18" fill="#f1dfbd" stroke="#c3842e" stroke-width="4"/>
</g>
  <g>
  <rect x="1198" y="824" width="92" height="78" rx="11" fill="#e1d8ef" stroke="#7358a3" stroke-width="3"/>
  <path d="M1210 844H1278M1210 862H1278M1210 880H1278" stroke="#7358a3" stroke-width="3" opacity="0.65"/>
</g><g>
  <rect x="1330" y="824" width="92" height="78" rx="11" fill="#e1d8ef" stroke="#7358a3" stroke-width="3"/>
  <path d="M1342 844H1410M1342 862H1410M1342 880H1410" stroke="#7358a3" stroke-width="3" opacity="0.65"/>
</g><g>
  <rect x="1462" y="824" width="92" height="78" rx="11" fill="#e1d8ef" stroke="#7358a3" stroke-width="3"/>
  <path d="M1474 844H1542M1474 862H1542M1474 880H1542" stroke="#7358a3" stroke-width="3" opacity="0.65"/>
</g><g>
  <rect x="1594" y="824" width="92" height="78" rx="11" fill="#e1d8ef" stroke="#7358a3" stroke-width="3"/>
  <path d="M1606 844H1674M1606 862H1674M1606 880H1674" stroke="#7358a3" stroke-width="3" opacity="0.65"/>
</g>
</g>
<text x="595" y="862" fill="#3977a8" font-size="24" font-weight="760" text-anchor="middle" letter-spacing="0">COMPUTE</text>
<text x="873" y="862" fill="#3977a8" font-size="24" font-weight="760" text-anchor="middle" letter-spacing="0">COMPUTE</text>
<text x="1085" y="855" fill="#c3842e" font-size="24" font-weight="780" text-anchor="middle" letter-spacing="0">I/O</text>
<text x="1085" y="883" fill="#c3842e" font-size="15" font-weight="650" text-anchor="middle" letter-spacing="0">mature node</text>
<text x="1448" y="964" fill="#7358a3" font-size="22" font-weight="700" text-anchor="middle" letter-spacing="0">HBM millimeters away</text>
<path d="M402 904L350 896" fill="none" stroke="#387d72" stroke-width="2.5"/>
<circle cx="350" cy="896" r="5" fill="#387d72"/>
<text x="132" y="912" fill="#387d72" font-size="24" font-weight="720" text-anchor="start" letter-spacing="1.1">SILICON INTERPOSER</text>
<text x="735" y="1008" fill="#74746f" font-size="25" font-weight="600" text-anchor="middle" letter-spacing="0">advanced nodes only where they pay</text>
</svg>
