<svg xmlns="http://www.w3.org/2000/svg" width="1920" height="1080" viewBox="0 0 1920 1080" role="img" aria-labelledby="title desc" font-family="Inter, -apple-system, BlinkMacSystemFont, 'Segoe UI', sans-serif">
<title id="title">Nested zoom from a wafer to a twenty nanometre defect</title>
<desc id="desc">A four-stage zoom moves from a 300 millimetre wafer to one die, then to metal interconnect lines, and finally to a 20 nanometre particle bridging two lines. The wafer diameter is fifteen million times the defect width.</desc>
<defs>
  <pattern id="paper-grid" width="48" height="48" patternUnits="userSpaceOnUse">
    <path d="M48 0H0V48" fill="none" stroke="#ded7ca" stroke-width="1" opacity="0.22"/>
  </pattern>
  <pattern id="die-grid" width="32" height="28" patternUnits="userSpaceOnUse">
    <path d="M32 0H0V28" fill="none" stroke="#4f5965" stroke-width="1.5" opacity="0.42"/>
  </pattern>
  <filter id="paper-shadow" x="-30%" y="-30%" width="160%" height="180%">
    <feDropShadow dx="0" dy="10" stdDeviation="13" flood-color="#493f30" flood-opacity="0.12"/>
  </filter>
  <filter id="soft-shadow" x="-30%" y="-30%" width="160%" height="180%">
    <feDropShadow dx="0" dy="5" stdDeviation="7" flood-color="#493f30" flood-opacity="0.14"/>
  </filter>
  <marker id="arrow-ink" markerWidth="12" markerHeight="12" refX="10" refY="6" orient="auto">
    <path d="M0 0L12 6L0 12Z" fill="#4f5965"/>
  </marker>
  <marker id="arrow-green" markerWidth="12" markerHeight="12" refX="10" refY="6" orient="auto">
    <path d="M0 0L12 6L0 12Z" fill="#16745c"/>
  </marker>
  <marker id="arrow-red" markerWidth="12" markerHeight="12" refX="10" refY="6" orient="auto">
    <path d="M0 0L12 6L0 12Z" fill="#ad4355"/>
  </marker>
</defs>
<rect width="1920" height="1080" fill="#f3efe6"/>
<rect width="1920" height="1080" fill="url(#paper-grid)"/>
<text x="104" y="92" fill="#7b827f" font-size="20" font-weight="760" text-anchor="start" letter-spacing="3.6" opacity="1">INSPECTION SCALE</text>
<text x="104" y="156" fill="#171a1f" font-size="48" font-weight="760" text-anchor="start" letter-spacing="0" opacity="1">A killer defect is fifteen million times smaller than the wafer</text>
<path d="M104 190H1816" stroke="#c9c1b3" stroke-width="2"/>
<g filter="url(#paper-shadow)">
  <circle cx="380" cy="522" r="194" fill="#fffaf0" stroke="#4f5965" stroke-width="5"/>
  <clipPath id="wafer-clip"><circle cx="380" cy="522" r="188"/></clipPath>
  <g clip-path="url(#wafer-clip)"><path d="M215 342V690" stroke="#4f5965" stroke-width="1.5" opacity="0.27"/>
<path d="M259 342V690" stroke="#4f5965" stroke-width="1.5" opacity="0.27"/>
<path d="M303 342V690" stroke="#4f5965" stroke-width="1.5" opacity="0.27"/>
<path d="M347 342V690" stroke="#4f5965" stroke-width="1.5" opacity="0.27"/>
<path d="M391 342V690" stroke="#4f5965" stroke-width="1.5" opacity="0.27"/>
<path d="M435 342V690" stroke="#4f5965" stroke-width="1.5" opacity="0.27"/>
<path d="M479 342V690" stroke="#4f5965" stroke-width="1.5" opacity="0.27"/>
<path d="M523 342V690" stroke="#4f5965" stroke-width="1.5" opacity="0.27"/>
<path d="M196 360H564" stroke="#4f5965" stroke-width="1.5" opacity="0.27"/>
<path d="M196 402H564" stroke="#4f5965" stroke-width="1.5" opacity="0.27"/>
<path d="M196 444H564" stroke="#4f5965" stroke-width="1.5" opacity="0.27"/>
<path d="M196 486H564" stroke="#4f5965" stroke-width="1.5" opacity="0.27"/>
<path d="M196 528H564" stroke="#4f5965" stroke-width="1.5" opacity="0.27"/>
<path d="M196 570H564" stroke="#4f5965" stroke-width="1.5" opacity="0.27"/>
<path d="M196 612H564" stroke="#4f5965" stroke-width="1.5" opacity="0.27"/>
<path d="M196 654H564" stroke="#4f5965" stroke-width="1.5" opacity="0.27"/></g>
  <rect x="456" y="456" width="44" height="42" fill="#f3dce0" stroke="#ad4355" stroke-width="4"/>
</g>
<text x="380" y="780" fill="#4f5965" font-size="25" font-weight="760" text-anchor="middle" letter-spacing="1.2" opacity="1">300 mm WAFER</text>
<path d="M590 555H682" fill="none" stroke="#4f5965" stroke-width="4" stroke-dasharray="7 8" marker-end="url(#arrow-ink)" opacity="0.8"/>

<g filter="url(#paper-shadow)">
  <rect x="706" y="340" width="342" height="364" rx="18" fill="#dce8f3" stroke="#2f68a2" stroke-width="5"/>
  <path d="M732 390H1022M732 444H1022M732 498H1022M732 552H1022M732 606H1022M790 366V678M856 366V678M922 366V678M988 366V678" stroke="#2f68a2" stroke-width="2" opacity="0.28"/>
  <rect x="888" y="532" width="70" height="58" fill="#f3dce0" stroke="#ad4355" stroke-width="4"/>
</g>
<text x="877" y="780" fill="#2f68a2" font-size="25" font-weight="760" text-anchor="middle" letter-spacing="1.2" opacity="1">ONE DIE</text>
<path d="M1070 555H1150" fill="none" stroke="#4f5965" stroke-width="4" stroke-dasharray="7 8" marker-end="url(#arrow-ink)" opacity="0.8"/>

<g filter="url(#paper-shadow)">
  <rect x="1170" y="340" width="302" height="364" rx="18" fill="#fffaf0" stroke="#c17a1b" stroke-width="5"/>
  <path d="M1170 408H1435" stroke="#4f5965" stroke-width="8" stroke-linecap="round" opacity="0.55"/>
<path d="M1190 456H1407" stroke="#4f5965" stroke-width="8" stroke-linecap="round" opacity="0.55"/>
<path d="M1170 504H1379" stroke="#4f5965" stroke-width="8" stroke-linecap="round" opacity="0.55"/>
<path d="M1190 552H1435" stroke="#c17a1b" stroke-width="14" stroke-linecap="round" opacity="0.82"/>
<path d="M1170 600H1407" stroke="#c17a1b" stroke-width="14" stroke-linecap="round" opacity="0.82"/>
<path d="M1190 648H1379" stroke="#4f5965" stroke-width="8" stroke-linecap="round" opacity="0.55"/>
<path d="M1170 696H1435" stroke="#4f5965" stroke-width="8" stroke-linecap="round" opacity="0.55"/>
<path d="M1190 744H1407" stroke="#4f5965" stroke-width="8" stroke-linecap="round" opacity="0.55"/>
  <circle cx="1320" cy="570" r="32" fill="none" stroke="#ad4355" stroke-width="5" stroke-dasharray="8 7"/>
</g>
<text x="1321" y="780" fill="#c17a1b" font-size="25" font-weight="760" text-anchor="middle" letter-spacing="1.2" opacity="1">METAL LINES</text>
<path d="M1493 555H1558" fill="none" stroke="#4f5965" stroke-width="4" stroke-dasharray="7 8" marker-end="url(#arrow-ink)" opacity="0.8"/>

<g filter="url(#paper-shadow)">
  <circle cx="1691" cy="522" r="146" fill="#fffaf0" stroke="#ad4355" stroke-width="5"/>
  <path d="M1566 475H1816M1566 575H1816" stroke="#c17a1b" stroke-width="34" stroke-linecap="round"/>
  <path d="M1674 473C1654 505 1728 531 1705 576" fill="none" stroke="#ad4355" stroke-width="28" stroke-linecap="round"/>
  <circle cx="1690" cy="525" r="25" fill="#ad4355" opacity="0.9"/>
</g>
<text x="1691" y="780" fill="#ad4355" font-size="25" font-weight="780" text-anchor="middle" letter-spacing="1.2" opacity="1">20 nm DEFECT</text>

<path d="M380 868H1691" stroke="#4f5965" stroke-width="3"/>
<path d="M380 850V886M1691 850V886" stroke="#4f5965" stroke-width="3"/>
<text x="1036" y="927" fill="#171a1f" font-size="42" font-weight="780" text-anchor="middle" letter-spacing="0" opacity="1">15,000,000×</text>
<text x="1036" y="966" fill="#7b827f" font-size="18" font-weight="720" text-anchor="middle" letter-spacing="2.2" opacity="1">LINEAR SCALE DIFFERENCE</text>
</svg>
