<svg xmlns="http://www.w3.org/2000/svg" width="1920" height="1080" viewBox="0 0 1920 1080" role="img" aria-labelledby="title desc" font-family="Inter, -apple-system, BlinkMacSystemFont, 'Segoe UI', sans-serif">
<title id="title">Lam Research deep NAND channel etch</title>
<desc id="desc">A wafer of repeated memory holes zooms into a tall cutaway stack. A single narrow channel is etched straight through more than one hundred layers, roughly fifty times deeper than it is wide.</desc>
<defs>
  <pattern id="paper-grid" width="48" height="48" patternUnits="userSpaceOnUse">
    <path d="M48 0H0V48" fill="none" stroke="#ded7ca" stroke-width="1" opacity="0.22"/>
  </pattern>
  <filter id="paper-shadow" x="-30%" y="-30%" width="160%" height="180%">
    <feDropShadow dx="0" dy="10" stdDeviation="13" flood-color="#493f30" flood-opacity="0.12"/>
  </filter>
  <marker id="arrow-ink" markerWidth="12" markerHeight="12" refX="10" refY="6" orient="auto">
    <path d="M0 0L12 6L0 12Z" fill="#4f5965"/>
  </marker>
  <marker id="arrow-amber" markerWidth="12" markerHeight="12" refX="10" refY="6" orient="auto">
    <path d="M0 0L12 6L0 12Z" fill="#c17a1b"/>
  </marker>
  <marker id="arrow-violet" markerWidth="12" markerHeight="12" refX="10" refY="6" orient="auto">
    <path d="M0 0L12 6L0 12Z" fill="#755aa3"/>
  </marker>
</defs>
<rect width="1920" height="1080" fill="#f3efe6"/>
<rect width="1920" height="1080" fill="url(#paper-grid)"/>
<text x="104" y="92" fill="#7b827f" font-size="20" font-weight="760" text-anchor="start" letter-spacing="3.6" opacity="1">DRY ETCH</text>
<text x="104" y="156" fill="#171a1f" font-size="48" font-weight="760" text-anchor="start" letter-spacing="0" opacity="1">One channel must stay straight through 100+ layers</text>
<path d="M104 190H1816" stroke="#c9c1b3" stroke-width="2"/>
<g filter="url(#paper-shadow)">
  <ellipse cx="388" cy="520" rx="230" ry="146" fill="#fffaf0" stroke="#4f5965" stroke-width="5"/>
  <ellipse cx="224" cy="436" rx="7" ry="4.5" fill="#4f5965" opacity="0.45"/><ellipse cx="251" cy="436" rx="7" ry="4.5" fill="#4f5965" opacity="0.61"/><ellipse cx="278" cy="436" rx="7" ry="4.5" fill="#4f5965" opacity="0.77"/><ellipse cx="305" cy="436" rx="7" ry="4.5" fill="#4f5965" opacity="0.45"/><ellipse cx="332" cy="436" rx="7" ry="4.5" fill="#4f5965" opacity="0.61"/><ellipse cx="359" cy="436" rx="7" ry="4.5" fill="#4f5965" opacity="0.77"/><ellipse cx="386" cy="436" rx="7" ry="4.5" fill="#4f5965" opacity="0.45"/><ellipse cx="413" cy="436" rx="7" ry="4.5" fill="#4f5965" opacity="0.61"/><ellipse cx="440" cy="436" rx="7" ry="4.5" fill="#4f5965" opacity="0.77"/><ellipse cx="467" cy="436" rx="7" ry="4.5" fill="#4f5965" opacity="0.45"/><ellipse cx="494" cy="436" rx="7" ry="4.5" fill="#4f5965" opacity="0.61"/><ellipse cx="521" cy="436" rx="7" ry="4.5" fill="#4f5965" opacity="0.77"/><ellipse cx="548" cy="436" rx="7" ry="4.5" fill="#4f5965" opacity="0.45"/><ellipse cx="237" cy="458" rx="7" ry="4.5" fill="#4f5965" opacity="0.61"/><ellipse cx="264" cy="458" rx="7" ry="4.5" fill="#4f5965" opacity="0.77"/><ellipse cx="291" cy="458" rx="7" ry="4.5" fill="#4f5965" opacity="0.45"/><ellipse cx="318" cy="458" rx="7" ry="4.5" fill="#4f5965" opacity="0.61"/><ellipse cx="345" cy="458" rx="7" ry="4.5" fill="#4f5965" opacity="0.77"/><ellipse cx="372" cy="458" rx="7" ry="4.5" fill="#4f5965" opacity="0.45"/><ellipse cx="399" cy="458" rx="7" ry="4.5" fill="#4f5965" opacity="0.61"/><ellipse cx="426" cy="458" rx="7" ry="4.5" fill="#4f5965" opacity="0.77"/><ellipse cx="453" cy="458" rx="7" ry="4.5" fill="#4f5965" opacity="0.45"/><ellipse cx="480" cy="458" rx="7" ry="4.5" fill="#4f5965" opacity="0.61"/><ellipse cx="507" cy="458" rx="7" ry="4.5" fill="#4f5965" opacity="0.77"/><ellipse cx="534" cy="458" rx="7" ry="4.5" fill="#4f5965" opacity="0.45"/><ellipse cx="561" cy="458" rx="7" ry="4.5" fill="#4f5965" opacity="0.61"/><ellipse cx="224" cy="480" rx="7" ry="4.5" fill="#4f5965" opacity="0.77"/><ellipse cx="251" cy="480" rx="7" ry="4.5" fill="#4f5965" opacity="0.45"/><ellipse cx="278" cy="480" rx="7" ry="4.5" fill="#4f5965" opacity="0.61"/><ellipse cx="305" cy="480" rx="7" ry="4.5" fill="#4f5965" opacity="0.77"/><ellipse cx="332" cy="480" rx="7" ry="4.5" fill="#4f5965" opacity="0.45"/><ellipse cx="359" cy="480" rx="7" ry="4.5" fill="#4f5965" opacity="0.61"/><ellipse cx="386" cy="480" rx="7" ry="4.5" fill="#4f5965" opacity="0.77"/><ellipse cx="413" cy="480" rx="7" ry="4.5" fill="#4f5965" opacity="0.45"/><ellipse cx="440" cy="480" rx="7" ry="4.5" fill="#4f5965" opacity="0.61"/><ellipse cx="467" cy="480" rx="7" ry="4.5" fill="#4f5965" opacity="0.77"/><ellipse cx="494" cy="480" rx="7" ry="4.5" fill="#4f5965" opacity="0.45"/><ellipse cx="521" cy="480" rx="7" ry="4.5" fill="#4f5965" opacity="0.61"/><ellipse cx="548" cy="480" rx="7" ry="4.5" fill="#4f5965" opacity="0.77"/><ellipse cx="237" cy="502" rx="7" ry="4.5" fill="#4f5965" opacity="0.45"/><ellipse cx="264" cy="502" rx="7" ry="4.5" fill="#4f5965" opacity="0.61"/><ellipse cx="291" cy="502" rx="7" ry="4.5" fill="#4f5965" opacity="0.77"/><ellipse cx="318" cy="502" rx="7" ry="4.5" fill="#4f5965" opacity="0.45"/><ellipse cx="345" cy="502" rx="7" ry="4.5" fill="#4f5965" opacity="0.61"/><ellipse cx="372" cy="502" rx="7" ry="4.5" fill="#4f5965" opacity="0.77"/><ellipse cx="399" cy="502" rx="7" ry="4.5" fill="#4f5965" opacity="0.45"/><ellipse cx="426" cy="502" rx="7" ry="4.5" fill="#4f5965" opacity="0.61"/><ellipse cx="453" cy="502" rx="7" ry="4.5" fill="#4f5965" opacity="0.77"/><ellipse cx="480" cy="502" rx="7" ry="4.5" fill="#4f5965" opacity="0.45"/><ellipse cx="507" cy="502" rx="7" ry="4.5" fill="#4f5965" opacity="0.61"/><ellipse cx="534" cy="502" rx="7" ry="4.5" fill="#4f5965" opacity="0.77"/><ellipse cx="561" cy="502" rx="7" ry="4.5" fill="#4f5965" opacity="0.45"/><ellipse cx="224" cy="524" rx="7" ry="4.5" fill="#4f5965" opacity="0.61"/><ellipse cx="251" cy="524" rx="7" ry="4.5" fill="#4f5965" opacity="0.77"/><ellipse cx="278" cy="524" rx="7" ry="4.5" fill="#4f5965" opacity="0.45"/><ellipse cx="305" cy="524" rx="7" ry="4.5" fill="#4f5965" opacity="0.61"/><ellipse cx="332" cy="524" rx="7" ry="4.5" fill="#4f5965" opacity="0.77"/><ellipse cx="359" cy="524" rx="7" ry="4.5" fill="#4f5965" opacity="0.45"/><ellipse cx="386" cy="524" rx="7" ry="4.5" fill="#4f5965" opacity="0.61"/><ellipse cx="413" cy="524" rx="7" ry="4.5" fill="#4f5965" opacity="0.77"/><ellipse cx="440" cy="524" rx="7" ry="4.5" fill="#4f5965" opacity="0.45"/><ellipse cx="467" cy="524" rx="7" ry="4.5" fill="#4f5965" opacity="0.61"/><ellipse cx="494" cy="524" rx="7" ry="4.5" fill="#4f5965" opacity="0.77"/><ellipse cx="521" cy="524" rx="7" ry="4.5" fill="#4f5965" opacity="0.45"/><ellipse cx="548" cy="524" rx="7" ry="4.5" fill="#4f5965" opacity="0.61"/><ellipse cx="237" cy="546" rx="7" ry="4.5" fill="#4f5965" opacity="0.77"/><ellipse cx="264" cy="546" rx="7" ry="4.5" fill="#4f5965" opacity="0.45"/><ellipse cx="291" cy="546" rx="7" ry="4.5" fill="#4f5965" opacity="0.61"/><ellipse cx="318" cy="546" rx="7" ry="4.5" fill="#4f5965" opacity="0.77"/><ellipse cx="345" cy="546" rx="7" ry="4.5" fill="#4f5965" opacity="0.45"/><ellipse cx="372" cy="546" rx="7" ry="4.5" fill="#4f5965" opacity="0.61"/><ellipse cx="399" cy="546" rx="7" ry="4.5" fill="#4f5965" opacity="0.77"/><ellipse cx="426" cy="546" rx="7" ry="4.5" fill="#4f5965" opacity="0.45"/><ellipse cx="453" cy="546" rx="7" ry="4.5" fill="#4f5965" opacity="0.61"/><ellipse cx="480" cy="546" rx="7" ry="4.5" fill="#4f5965" opacity="0.77"/><ellipse cx="507" cy="546" rx="7" ry="4.5" fill="#4f5965" opacity="0.45"/><ellipse cx="534" cy="546" rx="7" ry="4.5" fill="#4f5965" opacity="0.61"/><ellipse cx="561" cy="546" rx="7" ry="4.5" fill="#4f5965" opacity="0.77"/><ellipse cx="224" cy="568" rx="7" ry="4.5" fill="#4f5965" opacity="0.45"/><ellipse cx="251" cy="568" rx="7" ry="4.5" fill="#4f5965" opacity="0.61"/><ellipse cx="278" cy="568" rx="7" ry="4.5" fill="#4f5965" opacity="0.77"/><ellipse cx="305" cy="568" rx="7" ry="4.5" fill="#4f5965" opacity="0.45"/><ellipse cx="332" cy="568" rx="7" ry="4.5" fill="#4f5965" opacity="0.61"/><ellipse cx="359" cy="568" rx="7" ry="4.5" fill="#4f5965" opacity="0.77"/><ellipse cx="386" cy="568" rx="7" ry="4.5" fill="#4f5965" opacity="0.45"/><ellipse cx="413" cy="568" rx="7" ry="4.5" fill="#4f5965" opacity="0.61"/><ellipse cx="440" cy="568" rx="7" ry="4.5" fill="#4f5965" opacity="0.77"/><ellipse cx="467" cy="568" rx="7" ry="4.5" fill="#4f5965" opacity="0.45"/><ellipse cx="494" cy="568" rx="7" ry="4.5" fill="#4f5965" opacity="0.61"/><ellipse cx="521" cy="568" rx="7" ry="4.5" fill="#4f5965" opacity="0.77"/><ellipse cx="548" cy="568" rx="7" ry="4.5" fill="#4f5965" opacity="0.45"/><ellipse cx="237" cy="590" rx="7" ry="4.5" fill="#4f5965" opacity="0.61"/><ellipse cx="264" cy="590" rx="7" ry="4.5" fill="#4f5965" opacity="0.77"/><ellipse cx="291" cy="590" rx="7" ry="4.5" fill="#4f5965" opacity="0.45"/><ellipse cx="318" cy="590" rx="7" ry="4.5" fill="#4f5965" opacity="0.61"/><ellipse cx="345" cy="590" rx="7" ry="4.5" fill="#4f5965" opacity="0.77"/><ellipse cx="372" cy="590" rx="7" ry="4.5" fill="#4f5965" opacity="0.45"/><ellipse cx="399" cy="590" rx="7" ry="4.5" fill="#4f5965" opacity="0.61"/><ellipse cx="426" cy="590" rx="7" ry="4.5" fill="#4f5965" opacity="0.77"/><ellipse cx="453" cy="590" rx="7" ry="4.5" fill="#4f5965" opacity="0.45"/><ellipse cx="480" cy="590" rx="7" ry="4.5" fill="#4f5965" opacity="0.61"/><ellipse cx="507" cy="590" rx="7" ry="4.5" fill="#4f5965" opacity="0.77"/><ellipse cx="534" cy="590" rx="7" ry="4.5" fill="#4f5965" opacity="0.45"/><ellipse cx="561" cy="590" rx="7" ry="4.5" fill="#4f5965" opacity="0.61"/><ellipse cx="224" cy="612" rx="7" ry="4.5" fill="#4f5965" opacity="0.77"/><ellipse cx="251" cy="612" rx="7" ry="4.5" fill="#4f5965" opacity="0.45"/><ellipse cx="278" cy="612" rx="7" ry="4.5" fill="#4f5965" opacity="0.61"/><ellipse cx="305" cy="612" rx="7" ry="4.5" fill="#4f5965" opacity="0.77"/><ellipse cx="332" cy="612" rx="7" ry="4.5" fill="#4f5965" opacity="0.45"/><ellipse cx="359" cy="612" rx="7" ry="4.5" fill="#4f5965" opacity="0.61"/><ellipse cx="386" cy="612" rx="7" ry="4.5" fill="#4f5965" opacity="0.77"/><ellipse cx="413" cy="612" rx="7" ry="4.5" fill="#4f5965" opacity="0.45"/><ellipse cx="440" cy="612" rx="7" ry="4.5" fill="#4f5965" opacity="0.61"/><ellipse cx="467" cy="612" rx="7" ry="4.5" fill="#4f5965" opacity="0.77"/><ellipse cx="494" cy="612" rx="7" ry="4.5" fill="#4f5965" opacity="0.45"/><ellipse cx="521" cy="612" rx="7" ry="4.5" fill="#4f5965" opacity="0.61"/><ellipse cx="548" cy="612" rx="7" ry="4.5" fill="#4f5965" opacity="0.77"/>
</g>
<text x="388" y="716" fill="#4f5965" font-size="21" font-weight="780" text-anchor="middle" letter-spacing="1.4" opacity="1">BILLIONS OF CHANNELS / WAFER</text>
<path d="M612 520H742" stroke="#4f5965" stroke-width="4" stroke-dasharray="8 9" marker-end="url(#arrow-ink)"/>

<rect x="760" y="242" width="790" height="728" rx="30" fill="#fffaf0" stroke="#c9c1b3" stroke-width="2" filter="url(#paper-shadow)"/>
<g><rect x="900" y="318" width="510" height="17.571428571428573" fill="#f2e2c7" stroke="#c17a1b" stroke-width="1.2"/>
<rect x="900" y="337.57142857142856" width="510" height="17.571428571428573" fill="#fffaf0" stroke="#c9c1b3" stroke-width="1.2"/>
<rect x="900" y="357.14285714285717" width="510" height="17.571428571428573" fill="#f2e2c7" stroke="#c17a1b" stroke-width="1.2"/>
<rect x="900" y="376.7142857142857" width="510" height="17.571428571428573" fill="#fffaf0" stroke="#c9c1b3" stroke-width="1.2"/>
<rect x="900" y="396.2857142857143" width="510" height="17.571428571428573" fill="#f2e2c7" stroke="#c17a1b" stroke-width="1.2"/>
<rect x="900" y="415.8571428571429" width="510" height="17.571428571428573" fill="#fffaf0" stroke="#c9c1b3" stroke-width="1.2"/>
<rect x="900" y="435.42857142857144" width="510" height="17.571428571428573" fill="#f2e2c7" stroke="#c17a1b" stroke-width="1.2"/>
<rect x="900" y="455" width="510" height="17.571428571428573" fill="#fffaf0" stroke="#c9c1b3" stroke-width="1.2"/>
<rect x="900" y="474.57142857142856" width="510" height="17.571428571428573" fill="#f2e2c7" stroke="#c17a1b" stroke-width="1.2"/>
<rect x="900" y="494.14285714285717" width="510" height="17.571428571428573" fill="#fffaf0" stroke="#c9c1b3" stroke-width="1.2"/>
<rect x="900" y="513.7142857142858" width="510" height="17.571428571428573" fill="#f2e2c7" stroke="#c17a1b" stroke-width="1.2"/>
<rect x="900" y="533.2857142857143" width="510" height="17.571428571428573" fill="#fffaf0" stroke="#c9c1b3" stroke-width="1.2"/>
<rect x="900" y="552.8571428571429" width="510" height="17.571428571428573" fill="#f2e2c7" stroke="#c17a1b" stroke-width="1.2"/>
<rect x="900" y="572.4285714285714" width="510" height="17.571428571428573" fill="#fffaf0" stroke="#c9c1b3" stroke-width="1.2"/>
<rect x="900" y="592" width="510" height="17.571428571428573" fill="#f2e2c7" stroke="#c17a1b" stroke-width="1.2"/>
<rect x="900" y="611.5714285714287" width="510" height="17.571428571428573" fill="#fffaf0" stroke="#c9c1b3" stroke-width="1.2"/>
<rect x="900" y="631.1428571428571" width="510" height="17.571428571428573" fill="#f2e2c7" stroke="#c17a1b" stroke-width="1.2"/>
<rect x="900" y="650.7142857142858" width="510" height="17.571428571428573" fill="#fffaf0" stroke="#c9c1b3" stroke-width="1.2"/>
<rect x="900" y="670.2857142857143" width="510" height="17.571428571428573" fill="#f2e2c7" stroke="#c17a1b" stroke-width="1.2"/>
<rect x="900" y="689.8571428571429" width="510" height="17.571428571428573" fill="#fffaf0" stroke="#c9c1b3" stroke-width="1.2"/>
<rect x="900" y="709.4285714285714" width="510" height="17.571428571428573" fill="#f2e2c7" stroke="#c17a1b" stroke-width="1.2"/>
<rect x="900" y="729" width="510" height="17.571428571428573" fill="#fffaf0" stroke="#c9c1b3" stroke-width="1.2"/>
<rect x="900" y="748.5714285714287" width="510" height="17.571428571428573" fill="#f2e2c7" stroke="#c17a1b" stroke-width="1.2"/>
<rect x="900" y="768.1428571428571" width="510" height="17.571428571428573" fill="#fffaf0" stroke="#c9c1b3" stroke-width="1.2"/>
<rect x="900" y="787.7142857142858" width="510" height="17.571428571428573" fill="#f2e2c7" stroke="#c17a1b" stroke-width="1.2"/>
<rect x="900" y="807.2857142857143" width="510" height="17.571428571428573" fill="#fffaf0" stroke="#c9c1b3" stroke-width="1.2"/>
<rect x="900" y="826.8571428571429" width="510" height="17.571428571428573" fill="#f2e2c7" stroke="#c17a1b" stroke-width="1.2"/>
<rect x="900" y="846.4285714285714" width="510" height="17.571428571428573" fill="#fffaf0" stroke="#c9c1b3" stroke-width="1.2"/></g>
<rect x="1127" y="304" width="56" height="588" rx="28" fill="#f3efe6" stroke="#c17a1b" stroke-width="8"/>
<path d="M1155 236V306" stroke="#c17a1b" stroke-width="8" marker-end="url(#arrow-amber)"/>
<text x="1155" y="278" fill="#c17a1b" font-size="20" font-weight="820" text-anchor="middle" letter-spacing="1.5" opacity="1">LAM DRY ETCH</text>
<path d="M1458 318H1500M1458 866H1500M1480 318V866" stroke="#4f5965" stroke-width="3"/>
<text x="1524" y="568" fill="#171a1f" font-size="34" font-weight="820" text-anchor="start" letter-spacing="0" opacity="1">~50×</text>
<text x="1524" y="605" fill="#7b827f" font-size="17" font-weight="760" text-anchor="start" letter-spacing="1.5" opacity="1">DEEPER</text>
<path d="M1127 922V950M1183 922V950M1127 938H1183" stroke="#4f5965" stroke-width="3"/>
<text x="1155" y="1000" fill="#7b827f" font-size="18" font-weight="760" text-anchor="middle" letter-spacing="1.5" opacity="1">1× WIDE</text>

<rect x="1605" y="300" width="210" height="418" rx="24" fill="#f2e2c7" stroke="#c17a1b" stroke-width="3"/>
<text x="1710" y="366" fill="#c17a1b" font-size="23" font-weight="820" text-anchor="middle" letter-spacing="1.5" opacity="1">ONE PASS</text>
<text x="1710" y="438" fill="#171a1f" font-size="54" font-weight="820" text-anchor="middle" letter-spacing="0" opacity="1">100+</text>
<text x="1710" y="473" fill="#7b827f" font-size="18" font-weight="760" text-anchor="middle" letter-spacing="1.8" opacity="1">LAYERS</text>
<path d="M1650 548H1770M1650 580H1770M1650 612H1770M1650 644H1770" stroke="#c17a1b" stroke-width="10" stroke-linecap="round"/>
<text x="1710" y="782" fill="#ad4355" font-size="36" font-weight="820" text-anchor="middle" letter-spacing="0" opacity="1">~1/1000</text>
<text x="1710" y="817" fill="#7b827f" font-size="18" font-weight="760" text-anchor="middle" letter-spacing="1.7" opacity="1">OF A HAIR</text>
</svg>
