<svg xmlns="http://www.w3.org/2000/svg" viewBox="0 0 1920 470" font-family="Inter, -apple-system, sans-serif">
<rect width="1920" height="470" fill="#080c14"/>
<text x="960" y="60" text-anchor="middle" font-size="30" font-weight="800" fill="#f8fafc">HOW EUV LIGHT IS MADE</text>
<circle cx="180" cy="240" r="86" fill="#3b2b10" stroke="#fbbf24" stroke-width="3"/>
<text x="180" y="228" text-anchor="middle" font-size="22" font-weight="700" fill="#f8fafc">Trumpf CO₂ laser</text>
<text x="180" y="258" text-anchor="middle" font-size="17" fill="#a8b3c7">fires twice per droplet</text>
<line x1="276" y1="240" x2="464" y2="240" stroke="#a8b3c7" stroke-width="3.5" />
<polygon points="464,240 452.12984377594,245.3008858897744 452.12984377594,234.6991141102256" fill="#a8b3c7"/>
<circle cx="560" cy="240" r="86" fill="#342f10" stroke="#eab308" stroke-width="3"/>
<text x="560" y="228" text-anchor="middle" font-size="22" font-weight="700" fill="#f8fafc">Tin droplets</text>
<text x="560" y="258" text-anchor="middle" font-size="17" fill="#a8b3c7">~50,000 / second</text>
<line x1="656" y1="240" x2="844" y2="240" stroke="#a8b3c7" stroke-width="3.5" />
<polygon points="844,240 832.12984377594,245.3008858897744 832.12984377594,234.6991141102256" fill="#a8b3c7"/>
<circle cx="940" cy="240" r="86" fill="#3a1720" stroke="#fb7185" stroke-width="3"/>
<text x="940" y="228" text-anchor="middle" font-size="22" font-weight="700" fill="#f8fafc">Plasma flash</text>
<text x="940" y="258" text-anchor="middle" font-size="17" fill="#a8b3c7">13.5 nm light</text>
<line x1="1036" y1="240" x2="1224" y2="240" stroke="#a8b3c7" stroke-width="3.5" />
<polygon points="1224,240 1212.12984377594,245.3008858897744 1212.12984377594,234.6991141102256" fill="#a8b3c7"/>
<circle cx="1320" cy="240" r="86" fill="#102a4f" stroke="#60a5fa" stroke-width="3"/>
<text x="1320" y="228" text-anchor="middle" font-size="22" font-weight="700" fill="#f8fafc">Zeiss mirrors</text>
<text x="1320" y="258" text-anchor="middle" font-size="17" fill="#a8b3c7">flattest objects on Earth</text>
<line x1="1416" y1="240" x2="1604" y2="240" stroke="#a8b3c7" stroke-width="3.5" />
<polygon points="1604,240 1592.12984377594,245.3008858897744 1592.12984377594,234.6991141102256" fill="#a8b3c7"/>
<circle cx="1700" cy="240" r="86" fill="#10382f" stroke="#34d399" stroke-width="3"/>
<text x="1700" y="228" text-anchor="middle" font-size="22" font-weight="700" fill="#f8fafc">Wafer</text>
<text x="1700" y="258" text-anchor="middle" font-size="17" fill="#a8b3c7">pattern printed</text>
<text x="960" y="420" text-anchor="middle" font-size="20" fill="#a8b3c7">a droplet of molten tin, hit mid-flight by a laser, twice — vaporized into plasma that shines at 13.5 nanometers</text>
</svg>
