<svg xmlns="http://www.w3.org/2000/svg" width="1920" height="1080" viewBox="0 0 1920 1080" role="img" aria-labelledby="title desc" font-family="Inter, -apple-system, BlinkMacSystemFont, 'Segoe UI', sans-serif">
<title id="title">Accelerator package assembly, state 2 of 4</title>
<desc id="desc">The same view adds a silicon interposer above the organic substrate.</desc>
<defs>
  <radialGradient id="spot" cx="50%" cy="48%" r="58%">
    <stop offset="0%" stop-color="#17304d" stop-opacity="0.58"/>
    <stop offset="68%" stop-color="#0b1422" stop-opacity="0.18"/>
    <stop offset="100%" stop-color="#05080e" stop-opacity="0"/>
  </radialGradient>
  <linearGradient id="substrateTop" x1="0" y1="0" x2="1" y2="1">
    <stop offset="0%" stop-color="#a9642e"/>
    <stop offset="100%" stop-color="#5f341d"/>
  </linearGradient>
  <linearGradient id="interposerTop" x1="0" y1="0" x2="1" y2="1">
    <stop offset="0%" stop-color="#167b91" stop-opacity="0.96"/>
    <stop offset="100%" stop-color="#083d50" stop-opacity="0.96"/>
  </linearGradient>
  <linearGradient id="computeTop" x1="0" y1="0" x2="1" y2="1">
    <stop offset="0%" stop-color="#2563b8"/>
    <stop offset="100%" stop-color="#102f6c"/>
  </linearGradient>
  <linearGradient id="hbmTop" x1="0" y1="0" x2="1" y2="1">
    <stop offset="0%" stop-color="#7438ab"/>
    <stop offset="100%" stop-color="#35145f"/>
  </linearGradient>
  <pattern id="grid" width="48" height="48" patternUnits="userSpaceOnUse">
    <path d="M 48 0 L 0 0 0 48" fill="none" stroke="#94a3b8" stroke-width="1" opacity="0.045"/>
  </pattern>
  <pattern id="microbumps" width="18" height="18" patternUnits="userSpaceOnUse">
    <circle cx="4" cy="4" r="1.7" fill="#a5f3fc" opacity="0.42"/>
  </pattern>
  <filter id="shadow" x="-30%" y="-30%" width="160%" height="180%">
    <feDropShadow dx="0" dy="18" stdDeviation="18" flood-color="#000" flood-opacity="0.5"/>
  </filter>
  <filter id="softGlow" x="-40%" y="-40%" width="180%" height="180%">
    <feGaussianBlur stdDeviation="8" result="blur"/>
    <feMerge><feMergeNode in="blur"/><feMergeNode in="SourceGraphic"/></feMerge>
  </filter>
</defs>
<rect width="1920" height="1080" fill="#05080e"/>
<rect width="1920" height="1080" fill="url(#spot)"/>
<rect width="1920" height="1080" fill="url(#grid)"/>
<g filter="url(#shadow)">
  <rect x="330" y="300" width="1260" height="520" rx="42" fill="url(#substrateTop)" stroke="#f3b35f" stroke-width="5"/>
  <rect x="350" y="320" width="1220" height="480" rx="34" fill="#211813" opacity="0.2"/>
  <path d="M 390 420 H 560 L 690 520" fill="none" stroke="#fbbf24" stroke-width="4" opacity="0.34"/>
  <path d="M 1530 420 H 1360 L 1230 520" fill="none" stroke="#fbbf24" stroke-width="4" opacity="0.34"/>
  <path d="M 390 474 H 572 L 698 538" fill="none" stroke="#fbbf24" stroke-width="4" opacity="0.34"/>
  <path d="M 1530 474 H 1348 L 1222 538" fill="none" stroke="#fbbf24" stroke-width="4" opacity="0.34"/>
  <path d="M 390 528 H 584 L 706 556" fill="none" stroke="#fbbf24" stroke-width="4" opacity="0.34"/>
  <path d="M 1530 528 H 1336 L 1214 556" fill="none" stroke="#fbbf24" stroke-width="4" opacity="0.34"/>
  <path d="M 390 582 H 596 L 714 574" fill="none" stroke="#fbbf24" stroke-width="4" opacity="0.34"/>
  <path d="M 1530 582 H 1324 L 1206 574" fill="none" stroke="#fbbf24" stroke-width="4" opacity="0.34"/>
  <path d="M 390 636 H 608 L 722 592" fill="none" stroke="#fbbf24" stroke-width="4" opacity="0.34"/>
  <path d="M 1530 636 H 1312 L 1198 592" fill="none" stroke="#fbbf24" stroke-width="4" opacity="0.34"/>
  <path d="M 390 690 H 620 L 730 610" fill="none" stroke="#fbbf24" stroke-width="4" opacity="0.34"/>
  <path d="M 1530 690 H 1300 L 1190 610" fill="none" stroke="#fbbf24" stroke-width="4" opacity="0.34"/>
  <path d="M 390 744 H 632 L 738 628" fill="none" stroke="#fbbf24" stroke-width="4" opacity="0.34"/>
  <path d="M 1530 744 H 1288 L 1182 628" fill="none" stroke="#fbbf24" stroke-width="4" opacity="0.34"/>
  <path d="M 390 798 H 644 L 746 646" fill="none" stroke="#fbbf24" stroke-width="4" opacity="0.34"/>
  <path d="M 1530 798 H 1276 L 1174 646" fill="none" stroke="#fbbf24" stroke-width="4" opacity="0.34"/>
  <rect x="330" y="788" width="1260" height="64" rx="24" fill="#8a4f24" stroke="#f3b35f" stroke-width="4"/>
  <circle cx="430" cy="842" r="6" fill="#fbbf24" opacity="0.72"/>
  <circle cx="476" cy="842" r="6" fill="#fbbf24" opacity="0.72"/>
  <circle cx="522" cy="842" r="6" fill="#fbbf24" opacity="0.72"/>
  <circle cx="568" cy="842" r="6" fill="#fbbf24" opacity="0.72"/>
  <circle cx="614" cy="842" r="6" fill="#fbbf24" opacity="0.72"/>
  <circle cx="660" cy="842" r="6" fill="#fbbf24" opacity="0.72"/>
  <circle cx="706" cy="842" r="6" fill="#fbbf24" opacity="0.72"/>
  <circle cx="752" cy="842" r="6" fill="#fbbf24" opacity="0.72"/>
  <circle cx="798" cy="842" r="6" fill="#fbbf24" opacity="0.72"/>
  <circle cx="844" cy="842" r="6" fill="#fbbf24" opacity="0.72"/>
  <circle cx="890" cy="842" r="6" fill="#fbbf24" opacity="0.72"/>
  <circle cx="936" cy="842" r="6" fill="#fbbf24" opacity="0.72"/>
  <circle cx="982" cy="842" r="6" fill="#fbbf24" opacity="0.72"/>
  <circle cx="1028" cy="842" r="6" fill="#fbbf24" opacity="0.72"/>
  <circle cx="1074" cy="842" r="6" fill="#fbbf24" opacity="0.72"/>
  <circle cx="1120" cy="842" r="6" fill="#fbbf24" opacity="0.72"/>
  <circle cx="1166" cy="842" r="6" fill="#fbbf24" opacity="0.72"/>
  <circle cx="1212" cy="842" r="6" fill="#fbbf24" opacity="0.72"/>
  <circle cx="1258" cy="842" r="6" fill="#fbbf24" opacity="0.72"/>
  <circle cx="1304" cy="842" r="6" fill="#fbbf24" opacity="0.72"/>
  <circle cx="1350" cy="842" r="6" fill="#fbbf24" opacity="0.72"/>
  <circle cx="1396" cy="842" r="6" fill="#fbbf24" opacity="0.72"/>
  <circle cx="1442" cy="842" r="6" fill="#fbbf24" opacity="0.72"/>
  <circle cx="1488" cy="842" r="6" fill="#fbbf24" opacity="0.72"/>
</g>
<g filter="url(#shadow)">
  <rect x="455" y="345" width="1010" height="400" rx="24" fill="url(#interposerTop)" stroke="#67e8f9" stroke-width="5"/>
  <rect x="475" y="365" width="970" height="360" rx="18" fill="url(#microbumps)" opacity="0.78"/>
  <path d="M 520 545 H 1400 M 960 390 V 700" stroke="#a5f3fc" stroke-width="2" opacity="0.24"/>
  <path d="M 560 430 C 730 430 690 510 820 510 M 1360 430 C 1190 430 1230 510 1100 510" fill="none" stroke="#a5f3fc" stroke-width="4" opacity="0.42"/>
  <path d="M 560 660 C 730 660 690 580 820 580 M 1360 660 C 1190 660 1230 580 1100 580" fill="none" stroke="#a5f3fc" stroke-width="4" opacity="0.42"/>
</g>
<path d="M 1466 412 L 1370 452" fill="none" stroke="#67e8f9" stroke-width="2.5" opacity="0.76"/>
<circle cx="1370" cy="452" r="5" fill="#67e8f9"/>
<text x="1490" y="420" fill="#67e8f9" font-size="25" font-weight="760" letter-spacing="2">SILICON INTERPOSER</text>
</svg>
