<svg xmlns="http://www.w3.org/2000/svg" width="1920" height="1080" viewBox="0 0 1920 1080" role="img" aria-labelledby="title desc" font-family="Inter, -apple-system, BlinkMacSystemFont, 'Segoe UI', sans-serif">
<title id="title">Accelerator package assembly, state 4 of 4</title>
<desc id="desc">The same view adds the thermal lid to complete the accelerator package.</desc>
<defs>
  <radialGradient id="spot" cx="50%" cy="48%" r="58%">
    <stop offset="0%" stop-color="#17304d" stop-opacity="0.58"/>
    <stop offset="68%" stop-color="#0b1422" stop-opacity="0.18"/>
    <stop offset="100%" stop-color="#05080e" stop-opacity="0"/>
  </radialGradient>
  <linearGradient id="substrateTop" x1="0" y1="0" x2="1" y2="1">
    <stop offset="0%" stop-color="#a9642e"/>
    <stop offset="100%" stop-color="#5f341d"/>
  </linearGradient>
  <linearGradient id="interposerTop" x1="0" y1="0" x2="1" y2="1">
    <stop offset="0%" stop-color="#167b91" stop-opacity="0.96"/>
    <stop offset="100%" stop-color="#083d50" stop-opacity="0.96"/>
  </linearGradient>
  <linearGradient id="computeTop" x1="0" y1="0" x2="1" y2="1">
    <stop offset="0%" stop-color="#2563b8"/>
    <stop offset="100%" stop-color="#102f6c"/>
  </linearGradient>
  <linearGradient id="hbmTop" x1="0" y1="0" x2="1" y2="1">
    <stop offset="0%" stop-color="#7438ab"/>
    <stop offset="100%" stop-color="#35145f"/>
  </linearGradient>
  <pattern id="grid" width="48" height="48" patternUnits="userSpaceOnUse">
    <path d="M 48 0 L 0 0 0 48" fill="none" stroke="#94a3b8" stroke-width="1" opacity="0.045"/>
  </pattern>
  <pattern id="microbumps" width="18" height="18" patternUnits="userSpaceOnUse">
    <circle cx="4" cy="4" r="1.7" fill="#a5f3fc" opacity="0.42"/>
  </pattern>
  <filter id="shadow" x="-30%" y="-30%" width="160%" height="180%">
    <feDropShadow dx="0" dy="18" stdDeviation="18" flood-color="#000" flood-opacity="0.5"/>
  </filter>
  <filter id="softGlow" x="-40%" y="-40%" width="180%" height="180%">
    <feGaussianBlur stdDeviation="8" result="blur"/>
    <feMerge><feMergeNode in="blur"/><feMergeNode in="SourceGraphic"/></feMerge>
  </filter>
</defs>
<rect width="1920" height="1080" fill="#05080e"/>
<rect width="1920" height="1080" fill="url(#spot)"/>
<rect width="1920" height="1080" fill="url(#grid)"/>
<g filter="url(#shadow)">
  <rect x="330" y="300" width="1260" height="520" rx="42" fill="url(#substrateTop)" stroke="#f3b35f" stroke-width="5"/>
  <rect x="350" y="320" width="1220" height="480" rx="34" fill="#211813" opacity="0.2"/>
  <path d="M 390 420 H 560 L 690 520" fill="none" stroke="#fbbf24" stroke-width="4" opacity="0.34"/>
  <path d="M 1530 420 H 1360 L 1230 520" fill="none" stroke="#fbbf24" stroke-width="4" opacity="0.34"/>
  <path d="M 390 474 H 572 L 698 538" fill="none" stroke="#fbbf24" stroke-width="4" opacity="0.34"/>
  <path d="M 1530 474 H 1348 L 1222 538" fill="none" stroke="#fbbf24" stroke-width="4" opacity="0.34"/>
  <path d="M 390 528 H 584 L 706 556" fill="none" stroke="#fbbf24" stroke-width="4" opacity="0.34"/>
  <path d="M 1530 528 H 1336 L 1214 556" fill="none" stroke="#fbbf24" stroke-width="4" opacity="0.34"/>
  <path d="M 390 582 H 596 L 714 574" fill="none" stroke="#fbbf24" stroke-width="4" opacity="0.34"/>
  <path d="M 1530 582 H 1324 L 1206 574" fill="none" stroke="#fbbf24" stroke-width="4" opacity="0.34"/>
  <path d="M 390 636 H 608 L 722 592" fill="none" stroke="#fbbf24" stroke-width="4" opacity="0.34"/>
  <path d="M 1530 636 H 1312 L 1198 592" fill="none" stroke="#fbbf24" stroke-width="4" opacity="0.34"/>
  <path d="M 390 690 H 620 L 730 610" fill="none" stroke="#fbbf24" stroke-width="4" opacity="0.34"/>
  <path d="M 1530 690 H 1300 L 1190 610" fill="none" stroke="#fbbf24" stroke-width="4" opacity="0.34"/>
  <path d="M 390 744 H 632 L 738 628" fill="none" stroke="#fbbf24" stroke-width="4" opacity="0.34"/>
  <path d="M 1530 744 H 1288 L 1182 628" fill="none" stroke="#fbbf24" stroke-width="4" opacity="0.34"/>
  <path d="M 390 798 H 644 L 746 646" fill="none" stroke="#fbbf24" stroke-width="4" opacity="0.34"/>
  <path d="M 1530 798 H 1276 L 1174 646" fill="none" stroke="#fbbf24" stroke-width="4" opacity="0.34"/>
  <rect x="330" y="788" width="1260" height="64" rx="24" fill="#8a4f24" stroke="#f3b35f" stroke-width="4"/>
  <circle cx="430" cy="842" r="6" fill="#fbbf24" opacity="0.72"/>
  <circle cx="476" cy="842" r="6" fill="#fbbf24" opacity="0.72"/>
  <circle cx="522" cy="842" r="6" fill="#fbbf24" opacity="0.72"/>
  <circle cx="568" cy="842" r="6" fill="#fbbf24" opacity="0.72"/>
  <circle cx="614" cy="842" r="6" fill="#fbbf24" opacity="0.72"/>
  <circle cx="660" cy="842" r="6" fill="#fbbf24" opacity="0.72"/>
  <circle cx="706" cy="842" r="6" fill="#fbbf24" opacity="0.72"/>
  <circle cx="752" cy="842" r="6" fill="#fbbf24" opacity="0.72"/>
  <circle cx="798" cy="842" r="6" fill="#fbbf24" opacity="0.72"/>
  <circle cx="844" cy="842" r="6" fill="#fbbf24" opacity="0.72"/>
  <circle cx="890" cy="842" r="6" fill="#fbbf24" opacity="0.72"/>
  <circle cx="936" cy="842" r="6" fill="#fbbf24" opacity="0.72"/>
  <circle cx="982" cy="842" r="6" fill="#fbbf24" opacity="0.72"/>
  <circle cx="1028" cy="842" r="6" fill="#fbbf24" opacity="0.72"/>
  <circle cx="1074" cy="842" r="6" fill="#fbbf24" opacity="0.72"/>
  <circle cx="1120" cy="842" r="6" fill="#fbbf24" opacity="0.72"/>
  <circle cx="1166" cy="842" r="6" fill="#fbbf24" opacity="0.72"/>
  <circle cx="1212" cy="842" r="6" fill="#fbbf24" opacity="0.72"/>
  <circle cx="1258" cy="842" r="6" fill="#fbbf24" opacity="0.72"/>
  <circle cx="1304" cy="842" r="6" fill="#fbbf24" opacity="0.72"/>
  <circle cx="1350" cy="842" r="6" fill="#fbbf24" opacity="0.72"/>
  <circle cx="1396" cy="842" r="6" fill="#fbbf24" opacity="0.72"/>
  <circle cx="1442" cy="842" r="6" fill="#fbbf24" opacity="0.72"/>
  <circle cx="1488" cy="842" r="6" fill="#fbbf24" opacity="0.72"/>
</g>
<g filter="url(#shadow)">
  <rect x="455" y="345" width="1010" height="400" rx="24" fill="url(#interposerTop)" stroke="#67e8f9" stroke-width="5"/>
  <rect x="475" y="365" width="970" height="360" rx="18" fill="url(#microbumps)" opacity="0.78"/>
  <path d="M 520 545 H 1400 M 960 390 V 700" stroke="#a5f3fc" stroke-width="2" opacity="0.24"/>
  <path d="M 560 430 C 730 430 690 510 820 510 M 1360 430 C 1190 430 1230 510 1100 510" fill="none" stroke="#a5f3fc" stroke-width="4" opacity="0.42"/>
  <path d="M 560 660 C 730 660 690 580 820 580 M 1360 660 C 1190 660 1230 580 1100 580" fill="none" stroke="#a5f3fc" stroke-width="4" opacity="0.42"/>
</g>
<g filter="url(#shadow)">
  <rect x="745" y="400" width="230" height="280" rx="14" fill="url(#computeTop)" stroke="#93c5fd" stroke-width="5"/>
  <path d="M 769 434 H 951" stroke="#bfdbfe" stroke-width="2" opacity="0.2"/>
  <path d="M 769 468 H 951" stroke="#bfdbfe" stroke-width="2" opacity="0.2"/>
  <path d="M 769 502 H 951" stroke="#bfdbfe" stroke-width="2" opacity="0.2"/>
  <path d="M 769 536 H 951" stroke="#bfdbfe" stroke-width="2" opacity="0.2"/>
  <path d="M 769 570 H 951" stroke="#bfdbfe" stroke-width="2" opacity="0.2"/>
  <path d="M 769 604 H 951" stroke="#bfdbfe" stroke-width="2" opacity="0.2"/>
  <path d="M 769 638 H 951" stroke="#bfdbfe" stroke-width="2" opacity="0.2"/>
  <path d="M 860 420 V 660" stroke="#bfdbfe" stroke-width="2" opacity="0.17"/>
  <text x="860" y="548" text-anchor="middle" fill="#f8fafc" font-size="26" font-weight="750" letter-spacing="2">GPU 1</text>
</g>
<g filter="url(#shadow)">
  <rect x="980" y="400" width="230" height="280" rx="14" fill="url(#computeTop)" stroke="#93c5fd" stroke-width="5"/>
  <path d="M 1004 434 H 1186" stroke="#bfdbfe" stroke-width="2" opacity="0.2"/>
  <path d="M 1004 468 H 1186" stroke="#bfdbfe" stroke-width="2" opacity="0.2"/>
  <path d="M 1004 502 H 1186" stroke="#bfdbfe" stroke-width="2" opacity="0.2"/>
  <path d="M 1004 536 H 1186" stroke="#bfdbfe" stroke-width="2" opacity="0.2"/>
  <path d="M 1004 570 H 1186" stroke="#bfdbfe" stroke-width="2" opacity="0.2"/>
  <path d="M 1004 604 H 1186" stroke="#bfdbfe" stroke-width="2" opacity="0.2"/>
  <path d="M 1004 638 H 1186" stroke="#bfdbfe" stroke-width="2" opacity="0.2"/>
  <path d="M 1095 420 V 660" stroke="#bfdbfe" stroke-width="2" opacity="0.17"/>
  <text x="1095" y="548" text-anchor="middle" fill="#f8fafc" font-size="26" font-weight="750" letter-spacing="2">GPU 2</text>
</g>
<g filter="url(#shadow)">
  <rect x="465" y="375" width="115" height="105" rx="12" fill="url(#hbmTop)" stroke="#d8b4fe" stroke-width="4"/>
  <rect x="475" y="387" width="95" height="10" rx="3" fill="#bb8be0" opacity="0.34"/>
  <rect x="475" y="401" width="95" height="10" rx="3" fill="#bb8be0" opacity="0.41000000000000003"/>
  <rect x="475" y="415" width="95" height="10" rx="3" fill="#bb8be0" opacity="0.48000000000000004"/>
  <rect x="475" y="429" width="95" height="10" rx="3" fill="#bb8be0" opacity="0.55"/>
  <rect x="475" y="443" width="95" height="10" rx="3" fill="#bb8be0" opacity="0.6200000000000001"/>
  <rect x="475" y="457" width="95" height="10" rx="3" fill="#bb8be0" opacity="0.6900000000000001"/>

</g>
<g filter="url(#shadow)">
  <rect x="590" y="375" width="115" height="105" rx="12" fill="url(#hbmTop)" stroke="#d8b4fe" stroke-width="4"/>
  <rect x="600" y="387" width="95" height="10" rx="3" fill="#bb8be0" opacity="0.34"/>
  <rect x="600" y="401" width="95" height="10" rx="3" fill="#bb8be0" opacity="0.41000000000000003"/>
  <rect x="600" y="415" width="95" height="10" rx="3" fill="#bb8be0" opacity="0.48000000000000004"/>
  <rect x="600" y="429" width="95" height="10" rx="3" fill="#bb8be0" opacity="0.55"/>
  <rect x="600" y="443" width="95" height="10" rx="3" fill="#bb8be0" opacity="0.6200000000000001"/>
  <rect x="600" y="457" width="95" height="10" rx="3" fill="#bb8be0" opacity="0.6900000000000001"/>

</g>
<g filter="url(#shadow)">
  <rect x="465" y="505" width="115" height="105" rx="12" fill="url(#hbmTop)" stroke="#d8b4fe" stroke-width="4"/>
  <rect x="475" y="517" width="95" height="10" rx="3" fill="#bb8be0" opacity="0.34"/>
  <rect x="475" y="531" width="95" height="10" rx="3" fill="#bb8be0" opacity="0.41000000000000003"/>
  <rect x="475" y="545" width="95" height="10" rx="3" fill="#bb8be0" opacity="0.48000000000000004"/>
  <rect x="475" y="559" width="95" height="10" rx="3" fill="#bb8be0" opacity="0.55"/>
  <rect x="475" y="573" width="95" height="10" rx="3" fill="#bb8be0" opacity="0.6200000000000001"/>
  <rect x="475" y="587" width="95" height="10" rx="3" fill="#bb8be0" opacity="0.6900000000000001"/>

</g>
<g filter="url(#shadow)">
  <rect x="590" y="505" width="115" height="105" rx="12" fill="url(#hbmTop)" stroke="#d8b4fe" stroke-width="4"/>
  <rect x="600" y="517" width="95" height="10" rx="3" fill="#bb8be0" opacity="0.34"/>
  <rect x="600" y="531" width="95" height="10" rx="3" fill="#bb8be0" opacity="0.41000000000000003"/>
  <rect x="600" y="545" width="95" height="10" rx="3" fill="#bb8be0" opacity="0.48000000000000004"/>
  <rect x="600" y="559" width="95" height="10" rx="3" fill="#bb8be0" opacity="0.55"/>
  <rect x="600" y="573" width="95" height="10" rx="3" fill="#bb8be0" opacity="0.6200000000000001"/>
  <rect x="600" y="587" width="95" height="10" rx="3" fill="#bb8be0" opacity="0.6900000000000001"/>

</g>
<g filter="url(#shadow)">
  <rect x="465" y="635" width="115" height="105" rx="12" fill="url(#hbmTop)" stroke="#d8b4fe" stroke-width="4"/>
  <rect x="475" y="647" width="95" height="10" rx="3" fill="#bb8be0" opacity="0.34"/>
  <rect x="475" y="661" width="95" height="10" rx="3" fill="#bb8be0" opacity="0.41000000000000003"/>
  <rect x="475" y="675" width="95" height="10" rx="3" fill="#bb8be0" opacity="0.48000000000000004"/>
  <rect x="475" y="689" width="95" height="10" rx="3" fill="#bb8be0" opacity="0.55"/>
  <rect x="475" y="703" width="95" height="10" rx="3" fill="#bb8be0" opacity="0.6200000000000001"/>
  <rect x="475" y="717" width="95" height="10" rx="3" fill="#bb8be0" opacity="0.6900000000000001"/>

</g>
<g filter="url(#shadow)">
  <rect x="590" y="635" width="115" height="105" rx="12" fill="url(#hbmTop)" stroke="#d8b4fe" stroke-width="4"/>
  <rect x="600" y="647" width="95" height="10" rx="3" fill="#bb8be0" opacity="0.34"/>
  <rect x="600" y="661" width="95" height="10" rx="3" fill="#bb8be0" opacity="0.41000000000000003"/>
  <rect x="600" y="675" width="95" height="10" rx="3" fill="#bb8be0" opacity="0.48000000000000004"/>
  <rect x="600" y="689" width="95" height="10" rx="3" fill="#bb8be0" opacity="0.55"/>
  <rect x="600" y="703" width="95" height="10" rx="3" fill="#bb8be0" opacity="0.6200000000000001"/>
  <rect x="600" y="717" width="95" height="10" rx="3" fill="#bb8be0" opacity="0.6900000000000001"/>

</g>
<g filter="url(#shadow)">
  <rect x="1225" y="375" width="115" height="105" rx="12" fill="url(#hbmTop)" stroke="#d8b4fe" stroke-width="4"/>
  <rect x="1235" y="387" width="95" height="10" rx="3" fill="#bb8be0" opacity="0.34"/>
  <rect x="1235" y="401" width="95" height="10" rx="3" fill="#bb8be0" opacity="0.41000000000000003"/>
  <rect x="1235" y="415" width="95" height="10" rx="3" fill="#bb8be0" opacity="0.48000000000000004"/>
  <rect x="1235" y="429" width="95" height="10" rx="3" fill="#bb8be0" opacity="0.55"/>
  <rect x="1235" y="443" width="95" height="10" rx="3" fill="#bb8be0" opacity="0.6200000000000001"/>
  <rect x="1235" y="457" width="95" height="10" rx="3" fill="#bb8be0" opacity="0.6900000000000001"/>

</g>
<g filter="url(#shadow)">
  <rect x="1350" y="375" width="115" height="105" rx="12" fill="url(#hbmTop)" stroke="#d8b4fe" stroke-width="4"/>
  <rect x="1360" y="387" width="95" height="10" rx="3" fill="#bb8be0" opacity="0.34"/>
  <rect x="1360" y="401" width="95" height="10" rx="3" fill="#bb8be0" opacity="0.41000000000000003"/>
  <rect x="1360" y="415" width="95" height="10" rx="3" fill="#bb8be0" opacity="0.48000000000000004"/>
  <rect x="1360" y="429" width="95" height="10" rx="3" fill="#bb8be0" opacity="0.55"/>
  <rect x="1360" y="443" width="95" height="10" rx="3" fill="#bb8be0" opacity="0.6200000000000001"/>
  <rect x="1360" y="457" width="95" height="10" rx="3" fill="#bb8be0" opacity="0.6900000000000001"/>

</g>
<g filter="url(#shadow)">
  <rect x="1225" y="505" width="115" height="105" rx="12" fill="url(#hbmTop)" stroke="#d8b4fe" stroke-width="4"/>
  <rect x="1235" y="517" width="95" height="10" rx="3" fill="#bb8be0" opacity="0.34"/>
  <rect x="1235" y="531" width="95" height="10" rx="3" fill="#bb8be0" opacity="0.41000000000000003"/>
  <rect x="1235" y="545" width="95" height="10" rx="3" fill="#bb8be0" opacity="0.48000000000000004"/>
  <rect x="1235" y="559" width="95" height="10" rx="3" fill="#bb8be0" opacity="0.55"/>
  <rect x="1235" y="573" width="95" height="10" rx="3" fill="#bb8be0" opacity="0.6200000000000001"/>
  <rect x="1235" y="587" width="95" height="10" rx="3" fill="#bb8be0" opacity="0.6900000000000001"/>

</g>
<g filter="url(#shadow)">
  <rect x="1350" y="505" width="115" height="105" rx="12" fill="url(#hbmTop)" stroke="#d8b4fe" stroke-width="4"/>
  <rect x="1360" y="517" width="95" height="10" rx="3" fill="#bb8be0" opacity="0.34"/>
  <rect x="1360" y="531" width="95" height="10" rx="3" fill="#bb8be0" opacity="0.41000000000000003"/>
  <rect x="1360" y="545" width="95" height="10" rx="3" fill="#bb8be0" opacity="0.48000000000000004"/>
  <rect x="1360" y="559" width="95" height="10" rx="3" fill="#bb8be0" opacity="0.55"/>
  <rect x="1360" y="573" width="95" height="10" rx="3" fill="#bb8be0" opacity="0.6200000000000001"/>
  <rect x="1360" y="587" width="95" height="10" rx="3" fill="#bb8be0" opacity="0.6900000000000001"/>

</g>
<g filter="url(#shadow)">
  <rect x="1225" y="635" width="115" height="105" rx="12" fill="url(#hbmTop)" stroke="#d8b4fe" stroke-width="4"/>
  <rect x="1235" y="647" width="95" height="10" rx="3" fill="#bb8be0" opacity="0.34"/>
  <rect x="1235" y="661" width="95" height="10" rx="3" fill="#bb8be0" opacity="0.41000000000000003"/>
  <rect x="1235" y="675" width="95" height="10" rx="3" fill="#bb8be0" opacity="0.48000000000000004"/>
  <rect x="1235" y="689" width="95" height="10" rx="3" fill="#bb8be0" opacity="0.55"/>
  <rect x="1235" y="703" width="95" height="10" rx="3" fill="#bb8be0" opacity="0.6200000000000001"/>
  <rect x="1235" y="717" width="95" height="10" rx="3" fill="#bb8be0" opacity="0.6900000000000001"/>

</g>
<g filter="url(#shadow)">
  <rect x="1350" y="635" width="115" height="105" rx="12" fill="url(#hbmTop)" stroke="#d8b4fe" stroke-width="4"/>
  <rect x="1360" y="647" width="95" height="10" rx="3" fill="#bb8be0" opacity="0.34"/>
  <rect x="1360" y="661" width="95" height="10" rx="3" fill="#bb8be0" opacity="0.41000000000000003"/>
  <rect x="1360" y="675" width="95" height="10" rx="3" fill="#bb8be0" opacity="0.48000000000000004"/>
  <rect x="1360" y="689" width="95" height="10" rx="3" fill="#bb8be0" opacity="0.55"/>
  <rect x="1360" y="703" width="95" height="10" rx="3" fill="#bb8be0" opacity="0.6200000000000001"/>
  <rect x="1360" y="717" width="95" height="10" rx="3" fill="#bb8be0" opacity="0.6900000000000001"/>

</g>
<path d="M 973 540 H 982" stroke="#93c5fd" stroke-width="12" filter="url(#softGlow)"/>
<g filter="url(#shadow)">
  <path d="M 305 274 H 1615 V 844 H 305 Z M 430 354 H 1490 V 764 H 430 Z" fill="#64748b" fill-rule="evenodd" opacity="0.5" stroke="#e2e8f0" stroke-width="5"/>
  <path d="M 430 354 H 1490 V 764 H 430 Z" fill="none" stroke="#e2e8f0" stroke-width="3" opacity="0.58"/>
  <path d="M 350 318 H 1570" stroke="#fff" stroke-width="3" opacity="0.3"/>
</g>
<path d="M 1486 222 L 1510 306" fill="none" stroke="#e2e8f0" stroke-width="2.5" opacity="0.76"/>
<circle cx="1510" cy="306" r="5" fill="#e2e8f0"/>
<text x="1510" y="230" fill="#e2e8f0" font-size="25" font-weight="760" letter-spacing="2">THERMAL LID</text>
</svg>
