<svg xmlns="http://www.w3.org/2000/svg" width="1920" height="1080" viewBox="0 0 1920 1080" role="img" aria-labelledby="title desc" font-family="Inter, -apple-system, BlinkMacSystemFont, 'Segoe UI', sans-serif">
<title id="title">Process drift with and without in-line inspection</title>
<desc id="desc">The top process track shows a drift beginning at step 400 and many wafer lots remaining suspect until final test at step 1000. The lower track shows an inspection gate at step 401 stopping the first affected lot before later lots proceed.</desc>
<defs>
  <pattern id="paper-grid" width="48" height="48" patternUnits="userSpaceOnUse">
    <path d="M48 0H0V48" fill="none" stroke="#ded7ca" stroke-width="1" opacity="0.22"/>
  </pattern>
  <pattern id="die-grid" width="32" height="28" patternUnits="userSpaceOnUse">
    <path d="M32 0H0V28" fill="none" stroke="#4f5965" stroke-width="1.5" opacity="0.42"/>
  </pattern>
  <filter id="paper-shadow" x="-30%" y="-30%" width="160%" height="180%">
    <feDropShadow dx="0" dy="10" stdDeviation="13" flood-color="#493f30" flood-opacity="0.12"/>
  </filter>
  <filter id="soft-shadow" x="-30%" y="-30%" width="160%" height="180%">
    <feDropShadow dx="0" dy="5" stdDeviation="7" flood-color="#493f30" flood-opacity="0.14"/>
  </filter>
  <marker id="arrow-ink" markerWidth="12" markerHeight="12" refX="10" refY="6" orient="auto">
    <path d="M0 0L12 6L0 12Z" fill="#4f5965"/>
  </marker>
  <marker id="arrow-green" markerWidth="12" markerHeight="12" refX="10" refY="6" orient="auto">
    <path d="M0 0L12 6L0 12Z" fill="#16745c"/>
  </marker>
  <marker id="arrow-red" markerWidth="12" markerHeight="12" refX="10" refY="6" orient="auto">
    <path d="M0 0L12 6L0 12Z" fill="#ad4355"/>
  </marker>
</defs>
<rect width="1920" height="1080" fill="#f3efe6"/>
<rect width="1920" height="1080" fill="url(#paper-grid)"/>
<text x="104" y="92" fill="#7b827f" font-size="20" font-weight="760" text-anchor="start" letter-spacing="3.6" opacity="1">PROCESS CONTROL</text>
<text x="104" y="156" fill="#171a1f" font-size="48" font-weight="760" text-anchor="start" letter-spacing="0" opacity="1">One missed measurement puts months of work at risk</text>
<path d="M104 190H1816" stroke="#c9c1b3" stroke-width="2"/>
<rect x="104" y="244" width="1712" height="316" rx="26" fill="#fffaf0" stroke="#c9c1b3" stroke-width="2" filter="url(#paper-shadow)"/>
<rect x="140" y="276" width="212" height="48" rx="24" fill="#f3dce0" stroke="#ad4355" stroke-width="2"/>
<text x="246" y="308" fill="#ad4355" font-size="20" font-weight="760" text-anchor="middle" letter-spacing="0.5" opacity="1">NO INSPECTION</text>
<path d="M330 420H1660" fill="none" stroke="#ad4355" stroke-width="5" marker-end="url(#arrow-red)" opacity="0.85"/>
<text x="330" y="371" fill="#ad4355" font-size="23" font-weight="760" text-anchor="middle" letter-spacing="0" opacity="1">400</text>
<text x="330" y="466" fill="#ad4355" font-size="18" font-weight="780" text-anchor="middle" letter-spacing="1.5" opacity="1">DRIFT</text>
<path d="M330 388V452" stroke="#ad4355" stroke-width="5"/>
<g filter="url(#soft-shadow)">
  <rect x="506" y="393" width="68" height="54" rx="9" fill="#f3dce0" stroke="#ad4355" stroke-width="3"/>
  <circle cx="540" cy="420" r="17" fill="none" stroke="#ad4355" stroke-width="2.5"/>
  <path d="M530 410L550 430M550 410L530 430" stroke="#ad4355" stroke-width="3"/>
</g>
<g filter="url(#soft-shadow)">
  <rect x="651" y="393" width="68" height="54" rx="9" fill="#f3dce0" stroke="#ad4355" stroke-width="3"/>
  <circle cx="685" cy="420" r="17" fill="none" stroke="#ad4355" stroke-width="2.5"/>
  <path d="M675 410L695 430M695 410L675 430" stroke="#ad4355" stroke-width="3"/>
</g>
<g filter="url(#soft-shadow)">
  <rect x="796" y="393" width="68" height="54" rx="9" fill="#f3dce0" stroke="#ad4355" stroke-width="3"/>
  <circle cx="830" cy="420" r="17" fill="none" stroke="#ad4355" stroke-width="2.5"/>
  <path d="M820 410L840 430M840 410L820 430" stroke="#ad4355" stroke-width="3"/>
</g>
<g filter="url(#soft-shadow)">
  <rect x="941" y="393" width="68" height="54" rx="9" fill="#f3dce0" stroke="#ad4355" stroke-width="3"/>
  <circle cx="975" cy="420" r="17" fill="none" stroke="#ad4355" stroke-width="2.5"/>
  <path d="M965 410L985 430M985 410L965 430" stroke="#ad4355" stroke-width="3"/>
</g>
<g filter="url(#soft-shadow)">
  <rect x="1086" y="393" width="68" height="54" rx="9" fill="#f3dce0" stroke="#ad4355" stroke-width="3"/>
  <circle cx="1120" cy="420" r="17" fill="none" stroke="#ad4355" stroke-width="2.5"/>
  <path d="M1110 410L1130 430M1130 410L1110 430" stroke="#ad4355" stroke-width="3"/>
</g>
<g filter="url(#soft-shadow)">
  <rect x="1231" y="393" width="68" height="54" rx="9" fill="#f3dce0" stroke="#ad4355" stroke-width="3"/>
  <circle cx="1265" cy="420" r="17" fill="none" stroke="#ad4355" stroke-width="2.5"/>
  <path d="M1255 410L1275 430M1275 410L1255 430" stroke="#ad4355" stroke-width="3"/>
</g>
<g filter="url(#soft-shadow)">
  <rect x="1376" y="393" width="68" height="54" rx="9" fill="#f3dce0" stroke="#ad4355" stroke-width="3"/>
  <circle cx="1410" cy="420" r="17" fill="none" stroke="#ad4355" stroke-width="2.5"/>
  <path d="M1400 410L1420 430M1420 410L1400 430" stroke="#ad4355" stroke-width="3"/>
</g>
<path d="M1642 351L1740 389V493L1642 531Z" fill="#f3dce0" stroke="#ad4355" stroke-width="4"/>
<text x="1690" y="430" fill="#ad4355" font-size="21" font-weight="800" text-anchor="middle" letter-spacing="1.5" opacity="1">SCRAP</text>
<text x="1660" y="371" fill="#ad4355" font-size="23" font-weight="760" text-anchor="middle" letter-spacing="0" opacity="1">1,000</text>

<rect x="104" y="614" width="1712" height="330" rx="26" fill="#fffaf0" stroke="#c9c1b3" stroke-width="2" filter="url(#paper-shadow)"/>
<rect x="140" y="646" width="222" height="48" rx="24" fill="#d7ebe3" stroke="#16745c" stroke-width="2"/>
<text x="251" y="678" fill="#16745c" font-size="20" font-weight="760" text-anchor="middle" letter-spacing="0.5" opacity="1">INSPECT AT 401</text>
<path d="M330 805H1660" fill="none" stroke="#16745c" stroke-width="5" marker-end="url(#arrow-green)" opacity="0.85"/>
<text x="330" y="756" fill="#ad4355" font-size="23" font-weight="760" text-anchor="middle" letter-spacing="0" opacity="1">400</text>
<path d="M330 773V837" stroke="#ad4355" stroke-width="5"/>
<g filter="url(#soft-shadow)">
  <rect x="486" y="778" width="68" height="54" rx="9" fill="#f3dce0" stroke="#ad4355" stroke-width="3"/>
  <circle cx="520" cy="805" r="17" fill="none" stroke="#ad4355" stroke-width="2.5"/>
  <path d="M510 795L530 815M530 795L510 815" stroke="#ad4355" stroke-width="3"/>
</g>
<g>
  <path d="M667 739V871M743 739V871" stroke="#16745c" stroke-width="7" stroke-linecap="round"/>
  <path d="M650 739H760" stroke="#16745c" stroke-width="7" stroke-linecap="round"/>
  <circle cx="705" cy="777" r="18" fill="none" stroke="#16745c" stroke-width="5"/>
  <path d="M718 790L737 809" stroke="#16745c" stroke-width="5" stroke-linecap="round"/>
</g>
<text x="705" y="728" fill="#16745c" font-size="23" font-weight="760" text-anchor="middle" letter-spacing="0" opacity="1">401</text>
<path d="M520 848C520 904 650 904 678 854" fill="none" stroke="#ad4355" stroke-width="4" stroke-dasharray="8 8" marker-end="url(#arrow-red)"/>
<text x="578" y="917" fill="#ad4355" font-size="18" font-weight="780" text-anchor="middle" letter-spacing="1.5" opacity="1">ONE LOT</text>
<g filter="url(#soft-shadow)">
  <rect x="866" y="778" width="68" height="54" rx="9" fill="#fffaf0" stroke="#16745c" stroke-width="3"/>
  <circle cx="900" cy="805" r="17" fill="none" stroke="#16745c" stroke-width="2.5"/>
</g>
<g filter="url(#soft-shadow)">
  <rect x="1026" y="778" width="68" height="54" rx="9" fill="#fffaf0" stroke="#16745c" stroke-width="3"/>
  <circle cx="1060" cy="805" r="17" fill="none" stroke="#16745c" stroke-width="2.5"/>
</g>
<g filter="url(#soft-shadow)">
  <rect x="1186" y="778" width="68" height="54" rx="9" fill="#fffaf0" stroke="#16745c" stroke-width="3"/>
  <circle cx="1220" cy="805" r="17" fill="none" stroke="#16745c" stroke-width="2.5"/>
</g>
<g filter="url(#soft-shadow)">
  <rect x="1346" y="778" width="68" height="54" rx="9" fill="#fffaf0" stroke="#16745c" stroke-width="3"/>
  <circle cx="1380" cy="805" r="17" fill="none" stroke="#16745c" stroke-width="2.5"/>
</g>
<g filter="url(#soft-shadow)">
  <rect x="1506" y="778" width="68" height="54" rx="9" fill="#fffaf0" stroke="#16745c" stroke-width="3"/>
  <circle cx="1540" cy="805" r="17" fill="none" stroke="#16745c" stroke-width="2.5"/>
</g>
<text x="1660" y="756" fill="#16745c" font-size="23" font-weight="760" text-anchor="middle" letter-spacing="0" opacity="1">1,000</text>
<text x="1816" y="1014" fill="#7b827f" font-size="19" font-weight="730" text-anchor="end" letter-spacing="2" opacity="1">PROCESS STEPS →</text>
</svg>
