<svg xmlns="http://www.w3.org/2000/svg" width="1920" height="1080" viewBox="0 0 1920 1080" role="img" aria-labelledby="title desc" font-family="Inter, -apple-system, BlinkMacSystemFont, 'Segoe UI', sans-serif">
<title id="title">The United States led and China led AI stacks use different components</title>
<desc id="desc">Two vertical stacks compare accelerators, software, foundries, and toolchains. The United States led stack uses Nvidia, CUDA, TSMC, and ASML plus United States and Japanese equipment. The China led stack uses Huawei Ascend, CANN, SMIC, and a domestic toolchain.</desc>
<defs>
  <pattern id="paper-grid" width="48" height="48" patternUnits="userSpaceOnUse">
    <path d="M48 0H0V48" fill="none" stroke="#ddd5c8" stroke-width="1" opacity="0.22"/>
  </pattern>
  <filter id="shadow" x="-30%" y="-30%" width="160%" height="180%">
    <feDropShadow dx="0" dy="10" stdDeviation="12" flood-color="#493f30" flood-opacity="0.13"/>
  </filter>
  <marker id="arrow-ink" markerWidth="12" markerHeight="12" refX="10" refY="6" orient="auto">
    <path d="M0 0L12 6L0 12Z" fill="#4f5965"/>
  </marker>
  <marker id="arrow-blue" markerWidth="12" markerHeight="12" refX="10" refY="6" orient="auto">
    <path d="M0 0L12 6L0 12Z" fill="#3977a8"/>
  </marker>
  <marker id="arrow-green" markerWidth="12" markerHeight="12" refX="10" refY="6" orient="auto">
    <path d="M0 0L12 6L0 12Z" fill="#397a66"/>
  </marker>
  <marker id="arrow-red" markerWidth="12" markerHeight="12" refX="10" refY="6" orient="auto">
    <path d="M0 0L12 6L0 12Z" fill="#ad4f5d"/>
  </marker>
</defs>
<rect width="1920" height="1080" fill="#f4efe6"/>
<rect width="1920" height="1080" fill="url(#paper-grid)"/>
<text x="132" y="112" fill="#3977a8" font-size="21" font-weight="780" text-anchor="start" letter-spacing="2.2" opacity="1">US-LED STACK</text>
<text x="1788" y="112" fill="#ad4f5d" font-size="21" font-weight="780" text-anchor="end" letter-spacing="2.2" opacity="1">CHINA-LED STACK</text>
<g filter="url(#shadow)">
  <rect x="122" y="180" width="670" height="124" rx="22" fill="#fffaf0" stroke="#3977a8" stroke-width="4"/>
  <rect x="122" y="180" width="20" height="124" rx="10" fill="#3977a8"/>
  <text x="180" y="231" fill="#3977a8" font-size="28" font-weight="800" text-anchor="start" letter-spacing="0" opacity="1">ACCELERATOR</text>
  <text x="180" y="268" fill="#777c79" font-size="20" font-weight="560" text-anchor="start" letter-spacing="0" opacity="1">Nvidia GPU</text>
</g>
<g filter="url(#shadow)">
  <rect x="122" y="362" width="670" height="124" rx="22" fill="#fffaf0" stroke="#7358a3" stroke-width="4"/>
  <rect x="122" y="362" width="20" height="124" rx="10" fill="#7358a3"/>
  <text x="180" y="413" fill="#7358a3" font-size="28" font-weight="800" text-anchor="start" letter-spacing="0" opacity="1">SOFTWARE</text>
  <text x="180" y="450" fill="#777c79" font-size="20" font-weight="560" text-anchor="start" letter-spacing="0" opacity="1">CUDA</text>
</g>
<g filter="url(#shadow)">
  <rect x="122" y="544" width="670" height="124" rx="22" fill="#fffaf0" stroke="#397a66" stroke-width="4"/>
  <rect x="122" y="544" width="20" height="124" rx="10" fill="#397a66"/>
  <text x="180" y="595" fill="#397a66" font-size="28" font-weight="800" text-anchor="start" letter-spacing="0" opacity="1">FOUNDRY</text>
  <text x="180" y="632" fill="#777c79" font-size="20" font-weight="560" text-anchor="start" letter-spacing="0" opacity="1">TSMC</text>
</g>
<g filter="url(#shadow)">
  <rect x="122" y="726" width="670" height="124" rx="22" fill="#fffaf0" stroke="#bd7b25" stroke-width="4"/>
  <rect x="122" y="726" width="20" height="124" rx="10" fill="#bd7b25"/>
  <text x="180" y="777" fill="#bd7b25" font-size="28" font-weight="800" text-anchor="start" letter-spacing="0" opacity="1">TOOLS</text>
  <text x="180" y="814" fill="#777c79" font-size="20" font-weight="560" text-anchor="start" letter-spacing="0" opacity="1">ASML + US / Japan equipment</text>
</g>
<g filter="url(#shadow)">
  <rect x="1128" y="180" width="670" height="124" rx="22" fill="#fffaf0" stroke="#ad4f5d" stroke-width="4"/>
  <rect x="1128" y="180" width="20" height="124" rx="10" fill="#ad4f5d"/>
  <text x="1186" y="231" fill="#ad4f5d" font-size="28" font-weight="800" text-anchor="start" letter-spacing="0" opacity="1">ACCELERATOR</text>
  <text x="1186" y="268" fill="#777c79" font-size="20" font-weight="560" text-anchor="start" letter-spacing="0" opacity="1">Huawei Ascend</text>
</g>
<g filter="url(#shadow)">
  <rect x="1128" y="362" width="670" height="124" rx="22" fill="#fffaf0" stroke="#7358a3" stroke-width="4"/>
  <rect x="1128" y="362" width="20" height="124" rx="10" fill="#7358a3"/>
  <text x="1186" y="413" fill="#7358a3" font-size="28" font-weight="800" text-anchor="start" letter-spacing="0" opacity="1">SOFTWARE</text>
  <text x="1186" y="450" fill="#777c79" font-size="20" font-weight="560" text-anchor="start" letter-spacing="0" opacity="1">CANN</text>
</g>
<g filter="url(#shadow)">
  <rect x="1128" y="544" width="670" height="124" rx="22" fill="#fffaf0" stroke="#397a66" stroke-width="4"/>
  <rect x="1128" y="544" width="20" height="124" rx="10" fill="#397a66"/>
  <text x="1186" y="595" fill="#397a66" font-size="28" font-weight="800" text-anchor="start" letter-spacing="0" opacity="1">FOUNDRY</text>
  <text x="1186" y="632" fill="#777c79" font-size="20" font-weight="560" text-anchor="start" letter-spacing="0" opacity="1">SMIC</text>
</g>
<g filter="url(#shadow)">
  <rect x="1128" y="726" width="670" height="124" rx="22" fill="#fffaf0" stroke="#bd7b25" stroke-width="4"/>
  <rect x="1128" y="726" width="20" height="124" rx="10" fill="#bd7b25"/>
  <text x="1186" y="777" fill="#bd7b25" font-size="28" font-weight="800" text-anchor="start" letter-spacing="0" opacity="1">TOOLS</text>
  <text x="1186" y="814" fill="#777c79" font-size="20" font-weight="560" text-anchor="start" letter-spacing="0" opacity="1">domestic toolchain</text>
</g>
<path d="M930 150V898" stroke="#ad4f5d" stroke-width="5" stroke-dasharray="16 13"/>
<path d="M990 150V898" stroke="#3977a8" stroke-width="5" stroke-dasharray="16 13"/>
<path d="M894 445L1026 565M1026 445L894 565" stroke="#4f5965" stroke-width="9" stroke-linecap="round"/>
<text x="960" y="970" fill="#ad4f5d" font-size="23" font-weight="800" text-anchor="middle" letter-spacing="1.2" opacity="1">CURRENT MINERAL-CONTROL PAUSES EXPIRE · NOVEMBER 2026</text>
</svg>
